<svg width="395" height="23" viewBox="0 0 395 23" fill="none" xmlns="http://www.w3.org/2000/svg">
<path d="M11.024 5.184C11.376 5.184 11.664 5.304 11.888 5.544C12.112 5.768 12.224 6.056 12.224 6.408V16.776C12.224 17.128 12.112 17.424 11.888 17.664C11.664 17.888 11.376 18 11.024 18C10.688 18 10.4 17.888 10.16 17.664C9.936 17.424 9.824 17.128 9.824 16.776V15.048L10.328 15.12C10.328 15.408 10.208 15.728 9.968 16.08C9.744 16.432 9.432 16.776 9.032 17.112C8.632 17.432 8.16 17.704 7.616 17.928C7.072 18.136 6.488 18.24 5.864 18.24C4.76 18.24 3.768 17.96 2.888 17.4C2.008 16.824 1.312 16.04 0.8 15.048C0.288 14.056 0.032 12.928 0.032 11.664C0.032 10.368 0.288 9.232 0.8 8.256C1.312 7.264 2 6.488 2.864 5.928C3.744 5.368 4.72 5.088 5.792 5.088C6.48 5.088 7.112 5.2 7.688 5.424C8.28 5.648 8.792 5.936 9.224 6.288C9.656 6.64 9.984 7.016 10.208 7.416C10.448 7.8 10.568 8.168 10.568 8.52L9.824 8.592V6.408C9.824 6.072 9.936 5.784 10.16 5.544C10.4 5.304 10.688 5.184 11.024 5.184ZM6.128 16.032C6.88 16.032 7.544 15.84 8.12 15.456C8.696 15.072 9.144 14.552 9.464 13.896C9.784 13.224 9.944 12.48 9.944 11.664C9.944 10.832 9.784 10.088 9.464 9.432C9.144 8.776 8.696 8.256 8.12 7.872C7.544 7.488 6.88 7.296 6.128 7.296C5.392 7.296 4.736 7.488 4.16 7.872C3.6 8.256 3.152 8.776 2.816 9.432C2.496 10.088 2.336 10.832 2.336 11.664C2.336 12.48 2.496 13.224 2.816 13.896C3.152 14.552 3.6 15.072 4.16 15.456C4.736 15.84 5.392 16.032 6.128 16.032ZM24.3462 5.088C25.4663 5.088 26.4583 5.368 27.3223 5.928C28.2022 6.488 28.8982 7.264 29.4102 8.256C29.9222 9.232 30.1782 10.36 30.1782 11.64C30.1782 12.92 29.9222 14.056 29.4102 15.048C28.8982 16.04 28.2102 16.824 27.3462 17.4C26.4822 17.96 25.5063 18.24 24.4183 18.24C23.8103 18.24 23.2342 18.144 22.6902 17.952C22.1462 17.744 21.6662 17.488 21.2502 17.184C20.8342 16.864 20.4902 16.528 20.2182 16.176C19.9622 15.824 19.8022 15.496 19.7382 15.192L20.3862 14.88V16.968C20.3862 17.304 20.2662 17.592 20.0262 17.832C19.8022 18.056 19.5222 18.168 19.1862 18.168C18.8342 18.168 18.5462 18.056 18.3222 17.832C18.0982 17.608 17.9862 17.32 17.9862 16.968V1.464C17.9862 1.112 18.0982 0.823999 18.3222 0.599999C18.5462 0.36 18.8342 0.24 19.1862 0.24C19.5222 0.24 19.8022 0.36 20.0262 0.599999C20.2662 0.823999 20.3862 1.112 20.3862 1.464V8.208L20.0022 7.992C20.0502 7.688 20.2022 7.376 20.4582 7.056C20.7142 6.72 21.0342 6.4 21.4182 6.096C21.8182 5.792 22.2662 5.552 22.7623 5.376C23.2743 5.184 23.8023 5.088 24.3462 5.088ZM24.0822 7.296C23.3142 7.296 22.6423 7.488 22.0662 7.872C21.5062 8.256 21.0662 8.776 20.7462 9.432C20.4262 10.072 20.2662 10.808 20.2662 11.64C20.2662 12.472 20.4262 13.224 20.7462 13.896C21.0662 14.552 21.5062 15.072 22.0662 15.456C22.6423 15.84 23.3142 16.032 24.0822 16.032C24.8342 16.032 25.4903 15.84 26.0503 15.456C26.6102 15.072 27.0503 14.544 27.3703 13.872C27.7063 13.2 27.8743 12.456 27.8743 11.64C27.8743 10.808 27.7063 10.072 27.3703 9.432C27.0503 8.776 26.6102 8.256 26.0503 7.872C25.4903 7.488 24.8342 7.296 24.0822 7.296ZM40.8845 5.088C41.7485 5.088 42.5165 5.184 43.1885 5.376C43.8605 5.552 44.3805 5.808 44.7485 6.144C45.1325 6.464 45.3245 6.84 45.3245 7.272C45.3245 7.544 45.2445 7.8 45.0845 8.04C44.9245 8.264 44.6845 8.376 44.3645 8.376C44.1405 8.376 43.9485 8.336 43.7885 8.256C43.6445 8.176 43.5085 8.08 43.3805 7.968C43.2525 7.856 43.0925 7.744 42.9005 7.632C42.7245 7.536 42.4605 7.456 42.1085 7.392C41.7725 7.328 41.4685 7.296 41.1965 7.296C40.3485 7.296 39.6125 7.488 38.9885 7.872C38.3805 8.256 37.9005 8.776 37.5485 9.432C37.2125 10.088 37.0445 10.832 37.0445 11.664C37.0445 12.496 37.2125 13.24 37.5485 13.896C37.9005 14.552 38.3725 15.072 38.9645 15.456C39.5725 15.84 40.2765 16.032 41.0765 16.032C41.5565 16.032 41.9485 16 42.2525 15.936C42.5565 15.856 42.8205 15.76 43.0445 15.648C43.2845 15.504 43.4845 15.36 43.6445 15.216C43.8205 15.056 44.0605 14.976 44.3645 14.976C44.7165 14.976 44.9805 15.088 45.1565 15.312C45.3485 15.52 45.4445 15.784 45.4445 16.104C45.4445 16.456 45.2285 16.8 44.7965 17.136C44.3805 17.456 43.8205 17.72 43.1165 17.928C42.4125 18.136 41.6365 18.24 40.7885 18.24C39.5405 18.24 38.4525 17.952 37.5245 17.376C36.6125 16.8 35.9005 16.016 35.3885 15.024C34.8925 14.032 34.6445 12.912 34.6445 11.664C34.6445 10.4 34.9085 9.28 35.4365 8.304C35.9645 7.312 36.7005 6.528 37.6445 5.952C38.5885 5.376 39.6685 5.088 40.8845 5.088ZM60.4818 0.24C60.8338 0.24 61.1218 0.352 61.3458 0.576C61.5698 0.8 61.6818 1.096 61.6818 1.464V16.776C61.6818 17.128 61.5698 17.424 61.3458 17.664C61.1218 17.888 60.8338 18 60.4818 18C60.1458 18 59.8578 17.888 59.6178 17.664C59.3938 17.424 59.2818 17.128 59.2818 16.776V15.048L59.7858 15.072C59.7858 15.36 59.6658 15.688 59.4258 16.056C59.2018 16.408 58.8898 16.752 58.4898 17.088C58.0898 17.424 57.6178 17.704 57.0738 17.928C56.5298 18.136 55.9458 18.24 55.3218 18.24C54.2178 18.24 53.2258 17.96 52.3458 17.4C51.4658 16.824 50.7698 16.048 50.2578 15.072C49.7458 14.08 49.4898 12.944 49.4898 11.664C49.4898 10.384 49.7458 9.256 50.2578 8.28C50.7698 7.288 51.4578 6.512 52.3218 5.952C53.2018 5.376 54.1778 5.088 55.2498 5.088C55.9218 5.088 56.5458 5.2 57.1218 5.424C57.7138 5.648 58.2258 5.936 58.6578 6.288C59.0898 6.64 59.4258 7.016 59.6658 7.416C59.9058 7.8 60.0258 8.168 60.0258 8.52L59.2818 8.592V1.464C59.2818 1.112 59.3938 0.823999 59.6178 0.599999C59.8578 0.36 60.1458 0.24 60.4818 0.24ZM55.5858 16.032C56.3538 16.032 57.0178 15.84 57.5778 15.456C58.1538 15.072 58.6018 14.552 58.9218 13.896C59.2418 13.24 59.4018 12.496 59.4018 11.664C59.4018 10.832 59.2418 10.088 58.9218 9.432C58.6018 8.776 58.1538 8.256 57.5778 7.872C57.0018 7.488 56.3378 7.296 55.5858 7.296C54.8498 7.296 54.1938 7.488 53.6178 7.872C53.0578 8.256 52.6098 8.776 52.2738 9.432C51.9538 10.088 51.7938 10.832 51.7938 11.664C51.7938 12.496 51.9538 13.24 52.2738 13.896C52.6098 14.552 53.0578 15.072 53.6178 15.456C54.1938 15.84 54.8498 16.032 55.5858 16.032ZM73.3241 18.24C71.9961 18.24 70.8441 17.968 69.8681 17.424C68.8921 16.864 68.1321 16.104 67.5881 15.144C67.0601 14.168 66.7961 13.056 66.7961 11.808C66.7961 10.4 67.0761 9.2 67.6361 8.208C68.2121 7.2 68.9561 6.432 69.8681 5.904C70.7801 5.36 71.7481 5.088 72.7721 5.088C73.5561 5.088 74.3001 5.248 75.0041 5.568C75.7081 5.872 76.3321 6.304 76.8761 6.864C77.4361 7.408 77.8761 8.056 78.1961 8.808C78.5161 9.544 78.6841 10.352 78.7001 11.232C78.6841 11.552 78.5561 11.816 78.3161 12.024C78.0761 12.232 77.7961 12.336 77.4761 12.336H68.1401L67.5641 10.296H76.5881L76.1321 10.728V10.128C76.1001 9.568 75.9161 9.08 75.5801 8.664C75.2441 8.232 74.8281 7.904 74.3321 7.68C73.8361 7.44 73.3161 7.32 72.7721 7.32C72.2921 7.32 71.8281 7.4 71.3801 7.56C70.9481 7.704 70.5561 7.944 70.2041 8.28C69.8681 8.616 69.5961 9.064 69.3881 9.624C69.1961 10.168 69.1001 10.848 69.1001 11.664C69.1001 12.544 69.2841 13.312 69.6521 13.968C70.0201 14.624 70.5161 15.136 71.1401 15.504C71.7641 15.856 72.4521 16.032 73.2041 16.032C73.7961 16.032 74.2841 15.976 74.6681 15.864C75.0521 15.736 75.3721 15.584 75.6281 15.408C75.8841 15.232 76.1081 15.064 76.3001 14.904C76.5401 14.76 76.7801 14.688 77.0201 14.688C77.3081 14.688 77.5481 14.792 77.7401 15C77.9321 15.192 78.0281 15.424 78.0281 15.696C78.0281 16.048 77.8521 16.368 77.5001 16.656C77.0681 17.072 76.4681 17.44 75.7001 17.76C74.9481 18.08 74.1561 18.24 73.3241 18.24ZM89.6928 0.263999C89.9968 0.263999 90.3088 0.303999 90.6288 0.383999C90.9488 0.463999 91.2128 0.599999 91.4208 0.792C91.6448 0.967999 91.7568 1.216 91.7568 1.536C91.7568 1.856 91.6608 2.12 91.4688 2.328C91.2768 2.52 91.0528 2.616 90.7968 2.616C90.6368 2.616 90.4208 2.584 90.1488 2.52C89.8768 2.44 89.6048 2.4 89.3328 2.4C88.9648 2.4 88.6688 2.488 88.4448 2.664C88.2208 2.824 88.0608 3.032 87.9648 3.288C87.8688 3.528 87.8208 3.768 87.8208 4.008V16.776C87.8208 17.128 87.7008 17.424 87.4608 17.664C87.2368 17.888 86.9568 18 86.6208 18C86.2688 18 85.9808 17.888 85.7568 17.664C85.5328 17.424 85.4208 17.128 85.4208 16.776V4.032C85.4208 2.928 85.7808 2.024 86.5008 1.32C87.2368 0.615999 88.3008 0.263999 89.6928 0.263999ZM90.1728 5.592C90.4928 5.592 90.7568 5.696 90.9648 5.904C91.1728 6.112 91.2768 6.376 91.2768 6.696C91.2768 7.016 91.1728 7.28 90.9648 7.488C90.7568 7.696 90.4928 7.8 90.1728 7.8H83.9568C83.6528 7.8 83.3888 7.696 83.1648 7.488C82.9568 7.28 82.8528 7.016 82.8528 6.696C82.8528 6.376 82.9568 6.112 83.1648 5.904C83.3888 5.696 83.6528 5.592 83.9568 5.592H90.1728ZM101.336 5.088C102.024 5.088 102.656 5.2 103.232 5.424C103.808 5.648 104.304 5.936 104.72 6.288C105.152 6.624 105.488 6.976 105.728 7.344C105.968 7.712 106.088 8.032 106.088 8.304L105.536 8.328V6.408C105.536 6.072 105.648 5.784 105.872 5.544C106.096 5.304 106.384 5.184 106.736 5.184C107.088 5.184 107.376 5.304 107.6 5.544C107.824 5.768 107.936 6.056 107.936 6.408V16.992C107.936 18.352 107.648 19.456 107.072 20.304C106.496 21.168 105.728 21.8 104.768 22.2C103.824 22.6 102.784 22.8 101.648 22.8C101.248 22.8 100.776 22.744 100.232 22.632C99.688 22.536 99.184 22.416 98.72 22.272C98.272 22.128 97.96 21.984 97.784 21.84C97.416 21.648 97.168 21.424 97.04 21.168C96.928 20.912 96.928 20.656 97.04 20.4C97.2 20.048 97.416 19.832 97.688 19.752C97.96 19.672 98.272 19.696 98.624 19.824C98.784 19.872 99.032 19.96 99.368 20.088C99.704 20.216 100.08 20.328 100.496 20.424C100.912 20.536 101.304 20.592 101.672 20.592C102.952 20.592 103.912 20.296 104.552 19.704C105.208 19.112 105.536 18.304 105.536 17.28V15.12L105.8 15.288C105.752 15.624 105.6 15.968 105.344 16.32C105.104 16.656 104.784 16.968 104.384 17.256C103.984 17.544 103.52 17.784 102.992 17.976C102.48 18.152 101.952 18.24 101.408 18.24C100.272 18.24 99.256 17.96 98.36 17.4C97.464 16.824 96.752 16.048 96.224 15.072C95.696 14.08 95.432 12.944 95.432 11.664C95.432 10.384 95.696 9.256 96.224 8.28C96.752 7.288 97.456 6.512 98.336 5.952C99.232 5.376 100.232 5.088 101.336 5.088ZM101.696 7.296C100.912 7.296 100.224 7.488 99.632 7.872C99.04 8.256 98.576 8.776 98.24 9.432C97.904 10.088 97.736 10.832 97.736 11.664C97.736 12.496 97.904 13.24 98.24 13.896C98.576 14.552 99.04 15.072 99.632 15.456C100.224 15.84 100.912 16.032 101.696 16.032C102.48 16.032 103.168 15.848 103.76 15.48C104.352 15.096 104.816 14.576 105.152 13.92C105.488 13.248 105.656 12.496 105.656 11.664C105.656 10.832 105.488 10.088 105.152 9.432C104.816 8.76 104.352 8.24 103.76 7.872C103.168 7.488 102.48 7.296 101.696 7.296ZM120.028 5.16C121.132 5.16 121.988 5.4 122.596 5.88C123.204 6.344 123.628 6.976 123.868 7.776C124.124 8.576 124.252 9.456 124.252 10.416V16.776C124.252 17.128 124.132 17.424 123.892 17.664C123.668 17.888 123.388 18 123.052 18C122.7 18 122.412 17.888 122.188 17.664C121.964 17.424 121.852 17.128 121.852 16.776V10.416C121.852 9.856 121.772 9.344 121.612 8.88C121.468 8.416 121.204 8.048 120.82 7.776C120.452 7.504 119.932 7.368 119.26 7.368C118.636 7.368 118.076 7.504 117.58 7.776C117.1 8.048 116.724 8.416 116.452 8.88C116.196 9.344 116.068 9.856 116.068 10.416V16.776C116.068 17.128 115.948 17.424 115.708 17.664C115.484 17.888 115.204 18 114.868 18C114.516 18 114.228 17.888 114.004 17.664C113.78 17.424 113.668 17.128 113.668 16.776V1.464C113.668 1.112 113.78 0.823999 114.004 0.599999C114.228 0.36 114.516 0.24 114.868 0.24C115.204 0.24 115.484 0.36 115.708 0.599999C115.948 0.823999 116.068 1.112 116.068 1.464V8.016L115.636 8.256C115.748 7.904 115.932 7.544 116.188 7.176C116.46 6.808 116.788 6.472 117.172 6.168C117.572 5.864 118.012 5.624 118.492 5.448C118.972 5.256 119.484 5.16 120.028 5.16ZM132.245 16.776C132.245 17.128 132.133 17.424 131.909 17.664C131.685 17.888 131.397 18 131.045 18C130.709 18 130.421 17.888 130.181 17.664C129.957 17.424 129.845 17.128 129.845 16.776V6.504C129.845 6.152 129.957 5.864 130.181 5.64C130.421 5.4 130.709 5.28 131.045 5.28C131.397 5.28 131.685 5.4 131.909 5.64C132.133 5.864 132.245 6.152 132.245 6.504V16.776ZM131.021 3.696C130.557 3.696 130.221 3.616 130.013 3.456C129.805 3.28 129.701 2.992 129.701 2.592V2.208C129.701 1.808 129.813 1.528 130.037 1.368C130.261 1.208 130.597 1.128 131.045 1.128C131.525 1.128 131.869 1.216 132.077 1.392C132.285 1.552 132.389 1.824 132.389 2.208V2.592C132.389 3.008 132.277 3.296 132.053 3.456C131.845 3.616 131.501 3.696 131.021 3.696ZM140.61 18.528C140.61 19.392 140.434 20.136 140.082 20.76C139.73 21.384 139.266 21.864 138.69 22.2C138.114 22.536 137.498 22.704 136.842 22.704C136.506 22.704 136.234 22.592 136.026 22.368C135.818 22.16 135.714 21.904 135.714 21.6V21.384C135.714 21.096 135.818 20.864 136.026 20.688C136.218 20.512 136.458 20.376 136.746 20.28C137.114 20.168 137.402 20 137.61 19.776C137.834 19.568 137.986 19.296 138.066 18.96C138.162 18.64 138.21 18.288 138.21 17.904V6.576C138.21 6.24 138.322 5.96 138.546 5.736C138.77 5.496 139.058 5.376 139.41 5.376C139.762 5.376 140.05 5.496 140.274 5.736C140.498 5.96 140.61 6.24 140.61 6.576V18.528ZM139.362 3.696C138.898 3.696 138.562 3.616 138.354 3.456C138.146 3.28 138.042 2.992 138.042 2.592V2.208C138.042 1.808 138.154 1.528 138.378 1.368C138.602 1.208 138.938 1.128 139.386 1.128C139.866 1.128 140.21 1.216 140.418 1.392C140.626 1.552 140.73 1.824 140.73 2.208V2.592C140.73 3.008 140.618 3.296 140.394 3.456C140.186 3.616 139.842 3.696 139.362 3.696ZM148.228 18C147.892 18 147.604 17.888 147.364 17.664C147.14 17.424 147.028 17.128 147.028 16.776V1.464C147.028 1.112 147.14 0.823999 147.364 0.599999C147.604 0.36 147.892 0.24 148.228 0.24C148.58 0.24 148.868 0.36 149.092 0.599999C149.316 0.823999 149.428 1.112 149.428 1.464V16.776C149.428 17.128 149.316 17.424 149.092 17.664C148.868 17.888 148.58 18 148.228 18ZM156.052 5.328C156.356 5.328 156.62 5.456 156.844 5.712C157.068 5.968 157.18 6.224 157.18 6.48C157.18 6.8 157.028 7.096 156.724 7.368L149.212 14.088L149.116 11.328L155.164 5.712C155.42 5.456 155.716 5.328 156.052 5.328ZM156.34 17.976C156.004 17.976 155.716 17.84 155.476 17.568L150.676 12.504L152.5 10.824L157.18 15.888C157.436 16.16 157.564 16.464 157.564 16.8C157.564 17.152 157.42 17.44 157.132 17.664C156.86 17.872 156.596 17.976 156.34 17.976ZM165.094 16.776C165.094 17.128 164.974 17.424 164.734 17.664C164.51 17.888 164.23 18 163.894 18C163.558 18 163.27 17.888 163.03 17.664C162.806 17.424 162.694 17.128 162.694 16.776V1.464C162.694 1.112 162.814 0.823999 163.054 0.599999C163.294 0.36 163.582 0.24 163.918 0.24C164.27 0.24 164.55 0.36 164.758 0.599999C164.982 0.823999 165.094 1.112 165.094 1.464V16.776ZM177.402 5.16C178.586 5.16 179.498 5.456 180.138 6.048C180.778 6.624 181.202 7.408 181.41 8.4L181.026 8.28L181.194 7.896C181.402 7.48 181.714 7.064 182.13 6.648C182.562 6.216 183.074 5.864 183.666 5.592C184.258 5.304 184.89 5.16 185.562 5.16C186.666 5.16 187.522 5.4 188.13 5.88C188.738 6.344 189.162 6.976 189.402 7.776C189.642 8.56 189.762 9.44 189.762 10.416V16.776C189.762 17.128 189.65 17.424 189.426 17.664C189.202 17.888 188.914 18 188.562 18C188.226 18 187.938 17.888 187.698 17.664C187.474 17.424 187.362 17.128 187.362 16.776V10.44C187.362 9.88 187.282 9.368 187.122 8.904C186.978 8.44 186.714 8.072 186.33 7.8C185.962 7.512 185.45 7.368 184.794 7.368C184.17 7.368 183.61 7.512 183.114 7.8C182.634 8.072 182.258 8.44 181.986 8.904C181.714 9.368 181.578 9.88 181.578 10.44V16.776C181.578 17.128 181.466 17.424 181.242 17.664C181.018 17.888 180.73 18 180.378 18C180.026 18 179.738 17.888 179.514 17.664C179.29 17.424 179.178 17.128 179.178 16.776V10.416C179.178 9.856 179.098 9.344 178.938 8.88C178.794 8.416 178.538 8.048 178.17 7.776C177.802 7.504 177.29 7.368 176.634 7.368C176.01 7.368 175.458 7.504 174.978 7.776C174.498 8.048 174.122 8.416 173.85 8.88C173.594 9.344 173.466 9.856 173.466 10.416V16.776C173.466 17.128 173.346 17.424 173.106 17.664C172.882 17.888 172.602 18 172.266 18C171.914 18 171.626 17.888 171.402 17.664C171.178 17.424 171.066 17.128 171.066 16.776V6.6C171.066 6.248 171.178 5.96 171.402 5.736C171.626 5.496 171.914 5.376 172.266 5.376C172.602 5.376 172.882 5.496 173.106 5.736C173.346 5.96 173.466 6.248 173.466 6.6V8.016L173.01 8.28C173.122 7.928 173.306 7.568 173.562 7.2C173.818 6.832 174.138 6.496 174.522 6.192C174.922 5.888 175.362 5.64 175.842 5.448C176.322 5.256 176.842 5.16 177.402 5.16ZM202.025 5.088C203.161 5.088 204.041 5.328 204.665 5.808C205.289 6.272 205.721 6.904 205.961 7.704C206.217 8.488 206.345 9.368 206.345 10.344V16.776C206.345 17.128 206.225 17.424 205.985 17.664C205.761 17.888 205.481 18 205.145 18C204.793 18 204.505 17.888 204.281 17.664C204.057 17.424 203.945 17.128 203.945 16.776V10.368C203.945 9.792 203.865 9.28 203.705 8.832C203.545 8.368 203.265 8 202.865 7.728C202.481 7.44 201.937 7.296 201.233 7.296C200.577 7.296 200.001 7.44 199.505 7.728C199.009 8 198.617 8.368 198.329 8.832C198.057 9.28 197.921 9.792 197.921 10.368V16.776C197.921 17.128 197.801 17.424 197.561 17.664C197.337 17.888 197.057 18 196.721 18C196.369 18 196.081 17.888 195.857 17.664C195.633 17.424 195.521 17.128 195.521 16.776V6.6C195.521 6.248 195.633 5.96 195.857 5.736C196.081 5.496 196.369 5.376 196.721 5.376C197.057 5.376 197.337 5.496 197.561 5.736C197.801 5.96 197.921 6.248 197.921 6.6V7.944L197.489 8.184C197.601 7.832 197.793 7.48 198.065 7.128C198.353 6.76 198.697 6.424 199.097 6.12C199.497 5.8 199.945 5.552 200.441 5.376C200.937 5.184 201.465 5.088 202.025 5.088ZM224.173 11.688C224.173 12.968 223.893 14.104 223.333 15.096C222.773 16.072 222.013 16.84 221.053 17.4C220.093 17.96 219.013 18.24 217.813 18.24C216.613 18.24 215.533 17.96 214.573 17.4C213.613 16.84 212.845 16.072 212.269 15.096C211.709 14.104 211.429 12.968 211.429 11.688C211.429 10.392 211.709 9.256 212.269 8.28C212.845 7.288 213.613 6.512 214.573 5.952C215.533 5.376 216.613 5.088 217.813 5.088C219.013 5.088 220.093 5.376 221.053 5.952C222.013 6.512 222.773 7.288 223.333 8.28C223.893 9.256 224.173 10.392 224.173 11.688ZM221.773 11.688C221.773 10.808 221.597 10.048 221.245 9.408C220.893 8.752 220.413 8.24 219.805 7.872C219.213 7.488 218.549 7.296 217.813 7.296C217.077 7.296 216.405 7.488 215.797 7.872C215.189 8.24 214.709 8.752 214.357 9.408C214.005 10.048 213.829 10.808 213.829 11.688C213.829 12.536 214.005 13.288 214.357 13.944C214.709 14.6 215.189 15.112 215.797 15.48C216.405 15.848 217.077 16.032 217.813 16.032C218.549 16.032 219.213 15.848 219.805 15.48C220.413 15.112 220.893 14.6 221.245 13.944C221.597 13.288 221.773 12.536 221.773 11.688ZM235.649 5.16C236.769 5.16 237.761 5.44 238.625 6C239.505 6.56 240.201 7.328 240.713 8.304C241.225 9.264 241.481 10.384 241.481 11.664C241.481 12.944 241.225 14.08 240.713 15.072C240.201 16.048 239.513 16.816 238.649 17.376C237.785 17.936 236.809 18.216 235.721 18.216C235.113 18.216 234.537 18.12 233.993 17.928C233.449 17.736 232.969 17.488 232.553 17.184C232.137 16.864 231.793 16.528 231.521 16.176C231.265 15.824 231.105 15.496 231.041 15.192L231.689 14.88V21.576C231.689 21.928 231.569 22.216 231.329 22.44C231.105 22.68 230.825 22.8 230.489 22.8C230.137 22.8 229.849 22.68 229.625 22.44C229.401 22.216 229.289 21.928 229.289 21.576V6.552C229.289 6.216 229.401 5.928 229.625 5.688C229.849 5.448 230.137 5.328 230.489 5.328C230.825 5.328 231.105 5.448 231.329 5.688C231.569 5.928 231.689 6.216 231.689 6.552V8.208L231.305 7.992C231.353 7.688 231.505 7.376 231.761 7.056C232.017 6.72 232.337 6.408 232.721 6.12C233.121 5.832 233.569 5.6 234.065 5.424C234.577 5.248 235.105 5.16 235.649 5.16ZM235.385 7.368C234.617 7.368 233.945 7.56 233.369 7.944C232.809 8.312 232.369 8.816 232.049 9.456C231.729 10.096 231.569 10.832 231.569 11.664C231.569 12.48 231.729 13.224 232.049 13.896C232.369 14.552 232.809 15.072 233.369 15.456C233.945 15.824 234.617 16.008 235.385 16.008C236.137 16.008 236.793 15.824 237.353 15.456C237.913 15.072 238.353 14.552 238.673 13.896C239.009 13.224 239.177 12.48 239.177 11.664C239.177 10.848 239.009 10.12 238.673 9.48C238.353 8.824 237.913 8.312 237.353 7.944C236.793 7.56 236.137 7.368 235.385 7.368ZM256.94 5.328C257.292 5.328 257.58 5.448 257.804 5.688C258.028 5.912 258.14 6.2 258.14 6.552V21.576C258.14 21.928 258.028 22.216 257.804 22.44C257.58 22.68 257.292 22.8 256.94 22.8C256.604 22.8 256.316 22.68 256.076 22.44C255.852 22.216 255.74 21.928 255.74 21.576V15.048L256.244 15.072C256.244 15.36 256.124 15.688 255.884 16.056C255.66 16.408 255.348 16.752 254.948 17.088C254.548 17.424 254.076 17.704 253.532 17.928C252.988 18.136 252.404 18.24 251.78 18.24C250.676 18.24 249.684 17.96 248.804 17.4C247.924 16.824 247.228 16.048 246.716 15.072C246.204 14.08 245.948 12.944 245.948 11.664C245.948 10.384 246.204 9.256 246.716 8.28C247.228 7.288 247.916 6.512 248.78 5.952C249.66 5.376 250.636 5.088 251.708 5.088C252.38 5.088 253.004 5.2 253.58 5.424C254.172 5.648 254.684 5.936 255.116 6.288C255.548 6.64 255.884 7.016 256.124 7.416C256.364 7.8 256.484 8.168 256.484 8.52L255.74 8.592V6.552C255.74 6.216 255.852 5.928 256.076 5.688C256.316 5.448 256.604 5.328 256.94 5.328ZM252.044 16.032C252.812 16.032 253.476 15.84 254.036 15.456C254.612 15.072 255.06 14.552 255.38 13.896C255.7 13.24 255.86 12.496 255.86 11.664C255.86 10.832 255.7 10.088 255.38 9.432C255.06 8.776 254.612 8.256 254.036 7.872C253.46 7.488 252.796 7.296 252.044 7.296C251.308 7.296 250.652 7.488 250.076 7.872C249.516 8.256 249.068 8.776 248.732 9.432C248.412 10.088 248.252 10.832 248.252 11.664C248.252 12.496 248.412 13.24 248.732 13.896C249.068 14.552 249.516 15.072 250.076 15.456C250.652 15.84 251.308 16.032 252.044 16.032ZM265.102 18C264.75 18 264.462 17.888 264.238 17.664C264.014 17.424 263.902 17.128 263.902 16.776V6.6C263.902 6.248 264.014 5.96 264.238 5.736C264.462 5.496 264.75 5.376 265.102 5.376C265.438 5.376 265.718 5.496 265.942 5.736C266.182 5.96 266.302 6.248 266.302 6.6V9.288L266.062 8.256C266.19 7.808 266.382 7.392 266.638 7.008C266.91 6.624 267.23 6.288 267.598 6C267.966 5.712 268.374 5.488 268.822 5.328C269.286 5.168 269.766 5.088 270.262 5.088C270.678 5.088 271.038 5.2 271.342 5.424C271.646 5.648 271.798 5.928 271.798 6.264C271.798 6.696 271.686 7.016 271.462 7.224C271.238 7.416 270.99 7.512 270.718 7.512C270.478 7.512 270.246 7.464 270.022 7.368C269.798 7.256 269.534 7.2 269.23 7.2C268.894 7.2 268.55 7.288 268.198 7.464C267.846 7.64 267.526 7.904 267.238 8.256C266.95 8.592 266.718 8.992 266.542 9.456C266.382 9.92 266.302 10.44 266.302 11.016V16.776C266.302 17.128 266.182 17.424 265.942 17.664C265.718 17.888 265.438 18 265.102 18ZM275.589 16.032C275.445 15.808 275.381 15.552 275.397 15.264C275.413 14.96 275.581 14.704 275.901 14.496C276.125 14.352 276.357 14.296 276.597 14.328C276.853 14.344 277.093 14.464 277.317 14.688C277.765 15.184 278.261 15.576 278.805 15.864C279.365 16.152 280.037 16.296 280.821 16.296C281.141 16.28 281.469 16.232 281.805 16.152C282.141 16.056 282.429 15.896 282.669 15.672C282.909 15.432 283.029 15.088 283.029 14.64C283.029 14.24 282.901 13.92 282.645 13.68C282.389 13.44 282.053 13.248 281.637 13.104C281.221 12.944 280.773 12.8 280.293 12.672C279.781 12.528 279.261 12.368 278.733 12.192C278.221 12.016 277.757 11.792 277.341 11.52C276.925 11.232 276.581 10.864 276.309 10.416C276.053 9.968 275.925 9.416 275.925 8.76C275.925 8.008 276.133 7.36 276.549 6.816C276.981 6.272 277.533 5.848 278.205 5.544C278.893 5.24 279.637 5.088 280.437 5.088C280.901 5.088 281.389 5.152 281.901 5.28C282.413 5.392 282.909 5.576 283.389 5.832C283.869 6.088 284.285 6.424 284.637 6.84C284.797 7.048 284.885 7.296 284.901 7.584C284.933 7.872 284.805 8.128 284.517 8.352C284.325 8.512 284.093 8.584 283.821 8.568C283.549 8.552 283.325 8.464 283.149 8.304C282.845 7.92 282.453 7.624 281.973 7.416C281.493 7.192 280.949 7.08 280.341 7.08C280.037 7.08 279.717 7.128 279.381 7.224C279.061 7.304 278.789 7.456 278.565 7.68C278.341 7.904 278.229 8.232 278.229 8.664C278.229 9.064 278.357 9.384 278.613 9.624C278.885 9.864 279.237 10.064 279.669 10.224C280.101 10.384 280.573 10.528 281.085 10.656C281.581 10.784 282.069 10.936 282.549 11.112C283.045 11.288 283.485 11.52 283.869 11.808C284.269 12.08 284.589 12.44 284.829 12.888C285.085 13.32 285.213 13.872 285.213 14.544C285.213 15.328 284.981 16 284.517 16.56C284.069 17.104 283.493 17.52 282.789 17.808C282.101 18.096 281.373 18.24 280.605 18.24C279.693 18.24 278.781 18.08 277.869 17.76C276.973 17.424 276.213 16.848 275.589 16.032ZM290.026 5.52H295.666C295.986 5.52 296.25 5.632 296.458 5.856C296.682 6.064 296.794 6.328 296.794 6.648C296.794 6.952 296.682 7.208 296.458 7.416C296.25 7.624 295.986 7.728 295.666 7.728H290.026C289.706 7.728 289.434 7.624 289.21 7.416C289.002 7.192 288.898 6.928 288.898 6.624C288.898 6.304 289.002 6.04 289.21 5.832C289.434 5.624 289.706 5.52 290.026 5.52ZM292.546 2.4C292.898 2.4 293.186 2.52 293.41 2.76C293.634 2.984 293.746 3.272 293.746 3.624V14.76C293.746 15.048 293.794 15.28 293.89 15.456C293.986 15.632 294.114 15.752 294.274 15.816C294.45 15.88 294.626 15.912 294.802 15.912C294.978 15.912 295.13 15.88 295.258 15.816C295.402 15.752 295.57 15.72 295.762 15.72C295.954 15.72 296.13 15.808 296.29 15.984C296.45 16.16 296.53 16.4 296.53 16.704C296.53 17.088 296.322 17.4 295.906 17.64C295.49 17.88 295.042 18 294.562 18C294.29 18 293.97 17.976 293.602 17.928C293.234 17.88 292.874 17.76 292.522 17.568C292.186 17.376 291.906 17.072 291.682 16.656C291.458 16.224 291.346 15.624 291.346 14.856V3.624C291.346 3.272 291.458 2.984 291.682 2.76C291.922 2.52 292.21 2.4 292.546 2.4ZM311.26 5.376C311.596 5.376 311.876 5.496 312.1 5.736C312.34 5.96 312.46 6.248 312.46 6.6V12.912C312.46 14.576 311.996 15.88 311.068 16.824C310.14 17.752 308.828 18.216 307.132 18.216C305.452 18.216 304.148 17.752 303.22 16.824C302.308 15.88 301.852 14.576 301.852 12.912V6.6C301.852 6.248 301.964 5.96 302.188 5.736C302.412 5.496 302.7 5.376 303.052 5.376C303.388 5.376 303.668 5.496 303.892 5.736C304.132 5.96 304.252 6.248 304.252 6.6V12.912C304.252 13.952 304.492 14.728 304.972 15.24C305.468 15.752 306.188 16.008 307.132 16.008C308.092 16.008 308.82 15.752 309.316 15.24C309.812 14.728 310.06 13.952 310.06 12.912V6.6C310.06 6.248 310.172 5.96 310.396 5.736C310.62 5.496 310.908 5.376 311.26 5.376ZM318.485 5.256C318.725 5.256 318.949 5.32 319.157 5.448C319.381 5.576 319.541 5.768 319.637 6.024L323.405 14.736L322.949 14.952L326.765 6.048C326.989 5.52 327.349 5.264 327.845 5.28C328.165 5.28 328.429 5.384 328.637 5.592C328.861 5.784 328.973 6.04 328.973 6.36C328.973 6.456 328.957 6.56 328.925 6.672C328.893 6.768 328.853 6.864 328.805 6.96L324.245 17.232C324.037 17.712 323.693 17.968 323.213 18C322.973 18.032 322.733 17.984 322.493 17.856C322.269 17.712 322.093 17.504 321.965 17.232L317.429 6.96C317.397 6.896 317.365 6.816 317.333 6.72C317.301 6.608 317.285 6.48 317.285 6.336C317.285 6.096 317.389 5.856 317.597 5.616C317.821 5.376 318.117 5.256 318.485 5.256ZM348.528 5.256C348.832 5.256 349.096 5.376 349.32 5.616C349.56 5.84 349.68 6.136 349.68 6.504C349.68 6.584 349.672 6.664 349.656 6.744C349.64 6.824 349.616 6.896 349.584 6.96L345.912 17.232C345.816 17.504 345.648 17.712 345.408 17.856C345.168 17.984 344.92 18.032 344.664 18C344.2 17.968 343.856 17.712 343.632 17.232L340.92 10.032L341.472 10.08L338.976 17.232C338.752 17.712 338.408 17.968 337.944 18C337.704 18.032 337.456 17.984 337.2 17.856C336.96 17.712 336.792 17.504 336.696 17.232L333 6.96C332.936 6.816 332.904 6.664 332.904 6.504C332.904 6.168 333.008 5.88 333.216 5.64C333.44 5.384 333.736 5.256 334.104 5.256C334.36 5.256 334.584 5.32 334.776 5.448C334.984 5.576 335.128 5.768 335.208 6.024L338.28 14.688L337.728 14.64L340.224 8.088C340.432 7.592 340.8 7.344 341.328 7.344C341.616 7.344 341.84 7.408 342 7.536C342.16 7.664 342.288 7.848 342.384 8.088L344.928 14.664L344.28 14.736L347.376 6.024C347.536 5.512 347.92 5.256 348.528 5.256ZM354.569 5.304C354.969 5.304 355.297 5.472 355.553 5.808L363.737 16.128C363.913 16.336 364.001 16.576 364.001 16.848C364.001 17.168 363.873 17.448 363.617 17.688C363.361 17.928 363.081 18.048 362.777 18.048C362.393 18.048 362.065 17.88 361.793 17.544L353.609 7.224C353.433 7.016 353.345 6.776 353.345 6.504C353.345 6.168 353.465 5.888 353.705 5.664C353.961 5.424 354.249 5.304 354.569 5.304ZM354.593 18.048C354.321 18.048 354.057 17.944 353.801 17.736C353.545 17.528 353.417 17.272 353.417 16.968C353.417 16.696 353.513 16.448 353.705 16.224L357.521 11.496L358.745 13.464L355.553 17.544C355.297 17.88 354.977 18.048 354.593 18.048ZM362.753 5.304C363.089 5.304 363.361 5.416 363.569 5.64C363.793 5.848 363.905 6.096 363.905 6.384C363.905 6.512 363.881 6.648 363.833 6.792C363.801 6.92 363.729 7.04 363.617 7.152L359.849 11.88L358.601 10.104L361.793 5.856C362.065 5.488 362.385 5.304 362.753 5.304ZM377.977 5.28C378.329 5.28 378.617 5.4 378.841 5.64C379.065 5.864 379.177 6.152 379.177 6.504V16.824C379.177 18.232 378.905 19.376 378.361 20.256C377.833 21.136 377.113 21.776 376.201 22.176C375.305 22.592 374.289 22.8 373.153 22.8C372.577 22.8 372.001 22.744 371.425 22.632C370.849 22.536 370.377 22.392 370.009 22.2C369.625 22.024 369.353 21.808 369.193 21.552C369.033 21.296 369.009 21.016 369.121 20.712C369.233 20.328 369.425 20.064 369.697 19.92C369.969 19.792 370.249 19.784 370.537 19.896C370.809 20.008 371.169 20.152 371.617 20.328C372.065 20.504 372.577 20.592 373.153 20.592C373.937 20.592 374.601 20.464 375.145 20.208C375.689 19.952 376.097 19.552 376.369 19.008C376.657 18.464 376.801 17.76 376.801 16.896V15.24L377.185 15.816C376.929 16.344 376.593 16.784 376.177 17.136C375.761 17.488 375.265 17.76 374.689 17.952C374.129 18.144 373.505 18.24 372.817 18.24C371.937 18.24 371.177 18.048 370.537 17.664C369.913 17.264 369.433 16.72 369.097 16.032C368.761 15.328 368.593 14.528 368.593 13.632V6.504C368.593 6.152 368.705 5.864 368.929 5.64C369.153 5.4 369.441 5.28 369.793 5.28C370.129 5.28 370.409 5.4 370.633 5.64C370.873 5.864 370.993 6.152 370.993 6.504V12.984C370.993 14.04 371.225 14.816 371.689 15.312C372.153 15.792 372.841 16.032 373.753 16.032C374.361 16.032 374.889 15.904 375.337 15.648C375.785 15.392 376.137 15.04 376.393 14.592C376.649 14.128 376.777 13.592 376.777 12.984V6.504C376.777 6.152 376.889 5.864 377.113 5.64C377.353 5.4 377.641 5.28 377.977 5.28ZM392.954 15.792C393.274 15.792 393.538 15.896 393.746 16.104C393.97 16.312 394.082 16.576 394.082 16.896C394.082 17.2 393.97 17.464 393.746 17.688C393.538 17.896 393.274 18 392.954 18H385.202C384.866 18 384.594 17.88 384.386 17.64C384.178 17.384 384.082 17.136 384.098 16.896C384.114 16.704 384.138 16.536 384.17 16.392C384.218 16.232 384.322 16.056 384.482 15.864L390.89 7.368V7.656H385.538C385.218 7.656 384.946 7.552 384.722 7.344C384.514 7.12 384.41 6.856 384.41 6.552C384.41 6.232 384.514 5.968 384.722 5.76C384.946 5.552 385.218 5.448 385.538 5.448H392.93C393.234 5.448 393.49 5.568 393.698 5.808C393.922 6.032 394.018 6.312 393.986 6.648C393.986 6.792 393.962 6.936 393.914 7.08C393.882 7.208 393.794 7.36 393.65 7.536L387.338 15.936L387.242 15.792H392.954Z" fill="#171717"/>
</svg>
