<svg width="171" height="66" viewBox="0 0 171 66" fill="none" xmlns="http://www.w3.org/2000/svg">
<rect width="171" height="66" rx="33" fill="#E0E0FF"/>
<path d="M43.9124 25.176C44.0564 25.176 44.2084 25.216 44.3684 25.296C44.5444 25.376 44.6804 25.48 44.7764 25.608L51.1364 35.232L50.2964 35.208L56.7284 25.608C56.9364 25.304 57.2084 25.16 57.5444 25.176C57.8004 25.192 58.0244 25.288 58.2164 25.464C58.4084 25.64 58.5044 25.872 58.5044 26.16V41.016C58.5044 41.288 58.4084 41.52 58.2164 41.712C58.0244 41.904 57.7844 42 57.4964 42C57.2084 42 56.9684 41.904 56.7764 41.712C56.5844 41.52 56.4884 41.288 56.4884 41.016V27.984L57.0884 28.104L51.4244 36.72C51.3284 36.832 51.2084 36.928 51.0644 37.008C50.9364 37.088 50.8004 37.128 50.6564 37.128C50.5124 37.128 50.3684 37.088 50.2244 37.008C50.0804 36.928 49.9604 36.832 49.8644 36.72L44.2724 28.104L44.7764 27.48V41.016C44.7764 41.288 44.6884 41.52 44.5124 41.712C44.3364 41.904 44.1124 42 43.8404 42C43.5684 42 43.3444 41.904 43.1684 41.712C43.0084 41.52 42.9284 41.288 42.9284 41.016V26.16C42.9284 25.904 43.0164 25.68 43.1924 25.488C43.3844 25.28 43.6244 25.176 43.9124 25.176ZM68.1097 42.24C66.8297 42.24 65.7097 41.968 64.7497 41.424C63.7897 40.88 63.0377 40.136 62.4937 39.192C61.9657 38.232 61.7017 37.128 61.7017 35.88C61.7017 34.488 61.9737 33.304 62.5177 32.328C63.0777 31.336 63.7977 30.584 64.6777 30.072C65.5737 29.544 66.5177 29.28 67.5097 29.28C68.2457 29.28 68.9577 29.416 69.6457 29.688C70.3337 29.96 70.9417 30.36 71.4697 30.888C71.9977 31.4 72.4217 32.024 72.7417 32.76C73.0617 33.48 73.2297 34.288 73.2457 35.184C73.2457 35.44 73.1497 35.656 72.9577 35.832C72.7657 36.008 72.5417 36.096 72.2857 36.096H62.8057L62.3737 34.44H71.6137L71.2297 34.776V34.248C71.1657 33.592 70.9417 33.032 70.5577 32.568C70.1897 32.088 69.7337 31.72 69.1897 31.464C68.6617 31.208 68.1017 31.08 67.5097 31.08C67.0297 31.08 66.5497 31.168 66.0697 31.344C65.6057 31.504 65.1817 31.776 64.7977 32.16C64.4297 32.528 64.1257 33.008 63.8857 33.6C63.6617 34.192 63.5497 34.904 63.5497 35.736C63.5497 36.664 63.7337 37.48 64.1017 38.184C64.4857 38.888 65.0137 39.448 65.6857 39.864C66.3577 40.264 67.1417 40.464 68.0377 40.464C68.5977 40.464 69.0857 40.392 69.5017 40.248C69.9177 40.104 70.2777 39.928 70.5817 39.72C70.8857 39.496 71.1417 39.272 71.3497 39.048C71.5577 38.904 71.7577 38.832 71.9497 38.832C72.1897 38.832 72.3817 38.912 72.5257 39.072C72.6857 39.232 72.7657 39.424 72.7657 39.648C72.7657 39.92 72.6377 40.16 72.3817 40.368C71.9337 40.864 71.3257 41.304 70.5577 41.688C69.7897 42.056 68.9737 42.24 68.1097 42.24ZM86.3555 24.24C86.6275 24.24 86.8515 24.336 87.0275 24.528C87.2195 24.704 87.3155 24.928 87.3155 25.2V41.016C87.3155 41.288 87.2195 41.52 87.0275 41.712C86.8515 41.904 86.6275 42 86.3555 42C86.0675 42 85.8355 41.904 85.6595 41.712C85.4835 41.52 85.3955 41.288 85.3955 41.016V38.736L85.8515 38.568C85.8515 38.952 85.7315 39.36 85.4915 39.792C85.2515 40.208 84.9235 40.6 84.5075 40.968C84.0915 41.336 83.5955 41.64 83.0195 41.88C82.4595 42.12 81.8515 42.24 81.1955 42.24C80.1235 42.24 79.1475 41.96 78.2675 41.4C77.4035 40.84 76.7155 40.072 76.2035 39.096C75.7075 38.12 75.4595 37.008 75.4595 35.76C75.4595 34.496 75.7075 33.376 76.2035 32.4C76.7155 31.424 77.4035 30.664 78.2675 30.12C79.1315 29.56 80.0915 29.28 81.1475 29.28C81.8195 29.28 82.4515 29.392 83.0435 29.616C83.6355 29.84 84.1475 30.144 84.5795 30.528C85.0275 30.912 85.3795 31.336 85.6355 31.8C85.8915 32.264 86.0195 32.728 86.0195 33.192L85.3955 33.048V25.2C85.3955 24.928 85.4835 24.704 85.6595 24.528C85.8355 24.336 86.0675 24.24 86.3555 24.24ZM81.4115 40.464C82.2115 40.464 82.9155 40.264 83.5235 39.864C84.1475 39.448 84.6275 38.888 84.9635 38.184C85.3155 37.464 85.4915 36.656 85.4915 35.76C85.4915 34.848 85.3155 34.04 84.9635 33.336C84.6275 32.632 84.1475 32.08 83.5235 31.68C82.9155 31.264 82.2115 31.056 81.4115 31.056C80.6275 31.056 79.9235 31.264 79.2995 31.68C78.6915 32.08 78.2115 32.632 77.8595 33.336C77.5075 34.04 77.3315 34.848 77.3315 35.76C77.3315 36.64 77.5075 37.44 77.8595 38.16C78.2115 38.864 78.6915 39.424 79.2995 39.84C79.9235 40.256 80.6275 40.464 81.4115 40.464ZM92.7217 41.016C92.7217 41.288 92.6257 41.52 92.4337 41.712C92.2577 41.904 92.0337 42 91.7617 42C91.4737 42 91.2417 41.904 91.0657 41.712C90.8897 41.52 90.8017 41.288 90.8017 41.016V30.36C90.8017 30.088 90.8897 29.864 91.0657 29.688C91.2577 29.496 91.4897 29.4 91.7617 29.4C92.0337 29.4 92.2577 29.496 92.4337 29.688C92.6257 29.864 92.7217 30.088 92.7217 30.36V41.016ZM91.7617 27.792C91.3617 27.792 91.0657 27.712 90.8737 27.552C90.6817 27.392 90.5857 27.144 90.5857 26.808V26.472C90.5857 26.136 90.6897 25.888 90.8977 25.728C91.1057 25.568 91.4017 25.488 91.7857 25.488C92.1697 25.488 92.4577 25.568 92.6497 25.728C92.8417 25.888 92.9377 26.136 92.9377 26.472V26.808C92.9377 27.144 92.8337 27.392 92.6257 27.552C92.4337 27.712 92.1457 27.792 91.7617 27.792ZM105.459 29.592C105.747 29.592 105.979 29.688 106.155 29.88C106.331 30.056 106.419 30.28 106.419 30.552V37.104C106.419 38.72 105.963 39.976 105.051 40.872C104.155 41.752 102.899 42.192 101.283 42.192C99.6825 42.192 98.4265 41.752 97.5145 40.872C96.6185 39.976 96.1705 38.72 96.1705 37.104V30.552C96.1705 30.28 96.2585 30.056 96.4345 29.88C96.6265 29.688 96.8585 29.592 97.1305 29.592C97.4185 29.592 97.6505 29.688 97.8265 29.88C98.0025 30.056 98.0905 30.28 98.0905 30.552V37.104C98.0905 38.192 98.3705 39.016 98.9305 39.576C99.4905 40.136 100.275 40.416 101.283 40.416C102.323 40.416 103.115 40.136 103.659 39.576C104.219 39.016 104.499 38.192 104.499 37.104V30.552C104.499 30.28 104.587 30.056 104.763 29.88C104.955 29.688 105.187 29.592 105.459 29.592ZM115.903 29.4C116.991 29.4 117.871 29.68 118.543 30.24C119.231 30.784 119.687 31.56 119.911 32.568H119.551L119.719 32.136C119.911 31.688 120.239 31.256 120.703 30.84C121.167 30.424 121.703 30.08 122.311 29.808C122.919 29.536 123.551 29.4 124.207 29.4C125.263 29.4 126.095 29.632 126.703 30.096C127.311 30.544 127.743 31.152 127.999 31.92C128.271 32.672 128.407 33.52 128.407 34.464V41.016C128.407 41.288 128.311 41.52 128.119 41.712C127.943 41.904 127.719 42 127.447 42C127.159 42 126.927 41.904 126.751 41.712C126.575 41.52 126.487 41.288 126.487 41.016V34.512C126.487 33.888 126.391 33.328 126.199 32.832C126.023 32.32 125.727 31.92 125.311 31.632C124.911 31.328 124.359 31.176 123.655 31.176C122.999 31.176 122.399 31.328 121.855 31.632C121.311 31.92 120.879 32.32 120.559 32.832C120.239 33.328 120.079 33.888 120.079 34.512V41.016C120.079 41.288 119.991 41.52 119.815 41.712C119.639 41.904 119.407 42 119.119 42C118.847 42 118.615 41.904 118.423 41.712C118.247 41.52 118.159 41.288 118.159 41.016V34.44C118.159 33.832 118.071 33.288 117.895 32.808C117.735 32.312 117.455 31.92 117.055 31.632C116.655 31.328 116.103 31.176 115.399 31.176C114.759 31.176 114.175 31.328 113.647 31.632C113.119 31.92 112.695 32.312 112.375 32.808C112.055 33.288 111.895 33.832 111.895 34.44V41.016C111.895 41.288 111.799 41.52 111.607 41.712C111.431 41.904 111.207 42 110.935 42C110.663 42 110.431 41.904 110.239 41.712C110.063 41.52 109.975 41.288 109.975 41.016V30.552C109.975 30.28 110.063 30.056 110.239 29.88C110.431 29.688 110.663 29.592 110.935 29.592C111.223 29.592 111.455 29.688 111.631 29.88C111.807 30.056 111.895 30.28 111.895 30.552V32.376L111.367 32.952C111.431 32.536 111.591 32.12 111.847 31.704C112.119 31.288 112.463 30.904 112.879 30.552C113.295 30.2 113.759 29.92 114.271 29.712C114.783 29.504 115.327 29.4 115.903 29.4Z" fill="#8584FF"/>
</svg>
