<svg width="291" height="290" viewBox="0 0 291 290" fill="none" xmlns="http://www.w3.org/2000/svg">
<path d="M74.8844 107.523L26.1644 222.106C25.1119 224.963 23.4578 227.218 21.2022 228.872C19.097 230.376 16.7663 231.128 14.21 231.128C10.15 231.128 7.14259 230 5.18778 227.744C3.23296 225.489 2.25556 222.707 2.25556 219.399C2.25556 218.046 2.48111 216.617 2.93222 215.113L59.0956 80.2311C60.2985 77.2237 62.103 74.893 64.5089 73.2389C67.0652 71.5848 69.7719 70.9081 72.6289 71.2089C75.3356 71.2089 77.8167 72.0359 80.0722 73.69C82.4781 75.1937 84.2074 77.3741 85.26 80.2311L140.747 212.407C141.499 214.361 141.874 216.166 141.874 217.82C141.874 221.88 140.521 225.113 137.814 227.519C135.258 229.925 132.401 231.128 129.243 231.128C126.537 231.128 124.056 230.301 121.8 228.647C119.695 226.993 118.041 224.737 116.838 221.88L68.3433 108.877L74.8844 107.523ZM33.1567 194.588L45.5622 168.649H106.462L110.748 194.588H33.1567ZM261.916 107.072C265.825 107.072 269.058 108.35 271.615 110.907C274.171 113.463 275.449 116.771 275.449 120.831V216.241C275.449 220.151 274.171 223.459 271.615 226.166C269.058 228.722 265.825 230 261.916 230C258.006 230 254.773 228.722 252.217 226.166C249.661 223.459 248.382 220.151 248.382 216.241V205.189L253.345 207.219C253.345 209.174 252.292 211.58 250.187 214.437C248.082 217.143 245.225 219.85 241.616 222.557C238.007 225.263 233.721 227.594 228.759 229.549C223.947 231.353 218.684 232.256 212.97 232.256C202.595 232.256 193.197 229.624 184.776 224.361C176.355 218.948 169.664 211.58 164.701 202.257C159.89 192.783 157.484 181.957 157.484 169.777C157.484 157.446 159.89 146.62 164.701 137.297C169.664 127.823 176.28 120.455 184.55 115.192C192.821 109.779 201.993 107.072 212.068 107.072C218.534 107.072 224.474 108.05 229.887 110.004C235.3 111.959 239.962 114.44 243.871 117.448C247.931 120.455 251.014 123.538 253.119 126.696C255.375 129.703 256.502 132.259 256.502 134.364L248.382 137.297V120.831C248.382 116.921 249.661 113.689 252.217 111.132C254.773 108.426 258.006 107.072 261.916 107.072ZM216.354 207.444C222.97 207.444 228.759 205.79 233.721 202.482C238.684 199.174 242.518 194.663 245.225 188.949C248.082 183.235 249.51 176.844 249.51 169.777C249.51 162.559 248.082 156.093 245.225 150.379C242.518 144.665 238.684 140.154 233.721 136.846C228.759 133.537 222.97 131.883 216.354 131.883C209.888 131.883 204.174 133.537 199.211 136.846C194.249 140.154 190.34 144.665 187.482 150.379C184.776 156.093 183.422 162.559 183.422 169.777C183.422 176.844 184.776 183.235 187.482 188.949C190.34 194.663 194.249 199.174 199.211 202.482C204.174 205.79 209.888 207.444 216.354 207.444Z" fill="#171717"/>
</svg>
