<svg width="171" height="66" viewBox="0 0 171 66" fill="none" xmlns="http://www.w3.org/2000/svg">
<rect width="171" height="66" rx="33" fill="#E0E0FF"/>
<path d="M39.1665 42.24C38.0145 42.24 36.9905 42.08 36.0945 41.76C35.1985 41.44 34.3425 40.912 33.5265 40.176C33.3505 40.048 33.2145 39.896 33.1185 39.72C33.0385 39.528 32.9985 39.336 32.9985 39.144C32.9985 38.84 33.1105 38.568 33.3345 38.328C33.5585 38.088 33.8385 37.968 34.1745 37.968C34.4305 37.968 34.6705 38.056 34.8945 38.232C35.5025 38.792 36.1345 39.216 36.7905 39.504C37.4625 39.792 38.2465 39.936 39.1425 39.936C39.7825 39.936 40.3665 39.832 40.8945 39.624C41.4385 39.416 41.8705 39.136 42.1905 38.784C42.5105 38.432 42.6705 38.024 42.6705 37.56C42.6705 36.984 42.5025 36.512 42.1665 36.144C41.8465 35.76 41.3745 35.448 40.7505 35.208C40.1425 34.952 39.4065 34.736 38.5425 34.56C37.7425 34.416 37.0225 34.216 36.3825 33.96C35.7585 33.704 35.2225 33.384 34.7745 33C34.3265 32.6 33.9825 32.128 33.7425 31.584C33.5025 31.04 33.3825 30.408 33.3825 29.688C33.3825 28.712 33.6385 27.872 34.1505 27.168C34.6625 26.464 35.3585 25.92 36.2385 25.536C37.1185 25.152 38.1105 24.96 39.2145 24.96C40.2225 24.96 41.1665 25.12 42.0465 25.44C42.9265 25.744 43.6385 26.16 44.1825 26.688C44.5665 27.024 44.7585 27.384 44.7585 27.768C44.7585 28.056 44.6385 28.328 44.3985 28.584C44.1745 28.824 43.9105 28.944 43.6065 28.944C43.3825 28.944 43.1905 28.88 43.0305 28.752C42.7745 28.48 42.4305 28.24 41.9985 28.032C41.5665 27.808 41.1025 27.624 40.6065 27.48C40.1265 27.336 39.6625 27.264 39.2145 27.264C38.4945 27.264 37.8785 27.368 37.3665 27.576C36.8545 27.768 36.4625 28.04 36.1905 28.392C35.9185 28.728 35.7825 29.128 35.7825 29.592C35.7825 30.136 35.9345 30.584 36.2385 30.936C36.5585 31.288 36.9985 31.576 37.5585 31.8C38.1185 32.008 38.7585 32.2 39.4785 32.376C40.3585 32.568 41.1425 32.784 41.8305 33.024C42.5345 33.264 43.1265 33.576 43.6065 33.96C44.0865 34.328 44.4545 34.792 44.7105 35.352C44.9665 35.912 45.0945 36.608 45.0945 37.44C45.0945 38.4 44.8225 39.24 44.2785 39.96C43.7345 40.68 43.0145 41.24 42.1185 41.64C41.2385 42.04 40.2545 42.24 39.1665 42.24ZM53.6616 42.24C52.3336 42.24 51.1816 41.968 50.2056 41.424C49.2296 40.864 48.4696 40.104 47.9256 39.144C47.3976 38.168 47.1336 37.056 47.1336 35.808C47.1336 34.4 47.4136 33.2 47.9736 32.208C48.5496 31.2 49.2936 30.432 50.2056 29.904C51.1176 29.36 52.0856 29.088 53.1096 29.088C53.8936 29.088 54.6376 29.248 55.3416 29.568C56.0456 29.872 56.6696 30.304 57.2136 30.864C57.7736 31.408 58.2136 32.056 58.5336 32.808C58.8536 33.544 59.0216 34.352 59.0376 35.232C59.0216 35.552 58.8936 35.816 58.6536 36.024C58.4136 36.232 58.1336 36.336 57.8136 36.336H48.4776L47.9016 34.296H56.9256L56.4696 34.728V34.128C56.4376 33.568 56.2536 33.08 55.9176 32.664C55.5816 32.232 55.1656 31.904 54.6696 31.68C54.1736 31.44 53.6536 31.32 53.1096 31.32C52.6296 31.32 52.1656 31.4 51.7176 31.56C51.2856 31.704 50.8936 31.944 50.5416 32.28C50.2056 32.616 49.9336 33.064 49.7256 33.624C49.5336 34.168 49.4376 34.848 49.4376 35.664C49.4376 36.544 49.6216 37.312 49.9896 37.968C50.3576 38.624 50.8536 39.136 51.4776 39.504C52.1016 39.856 52.7896 40.032 53.5416 40.032C54.1336 40.032 54.6216 39.976 55.0056 39.864C55.3896 39.736 55.7096 39.584 55.9656 39.408C56.2216 39.232 56.4456 39.064 56.6376 38.904C56.8776 38.76 57.1176 38.688 57.3576 38.688C57.6456 38.688 57.8856 38.792 58.0776 39C58.2696 39.192 58.3656 39.424 58.3656 39.696C58.3656 40.048 58.1896 40.368 57.8376 40.656C57.4056 41.072 56.8056 41.44 56.0376 41.76C55.2856 42.08 54.4936 42.24 53.6616 42.24ZM68.0863 29.16C69.2703 29.16 70.1823 29.456 70.8223 30.048C71.4623 30.624 71.8863 31.408 72.0943 32.4L71.7103 32.28L71.8783 31.896C72.0863 31.48 72.3983 31.064 72.8143 30.648C73.2463 30.216 73.7583 29.864 74.3503 29.592C74.9423 29.304 75.5743 29.16 76.2463 29.16C77.3503 29.16 78.2063 29.4 78.8143 29.88C79.4223 30.344 79.8463 30.976 80.0863 31.776C80.3263 32.56 80.4463 33.44 80.4463 34.416V40.776C80.4463 41.128 80.3343 41.424 80.1103 41.664C79.8863 41.888 79.5983 42 79.2463 42C78.9103 42 78.6223 41.888 78.3823 41.664C78.1583 41.424 78.0463 41.128 78.0463 40.776V34.44C78.0463 33.88 77.9663 33.368 77.8063 32.904C77.6623 32.44 77.3983 32.072 77.0143 31.8C76.6463 31.512 76.1343 31.368 75.4783 31.368C74.8543 31.368 74.2943 31.512 73.7983 31.8C73.3183 32.072 72.9423 32.44 72.6703 32.904C72.3983 33.368 72.2623 33.88 72.2623 34.44V40.776C72.2623 41.128 72.1503 41.424 71.9263 41.664C71.7023 41.888 71.4143 42 71.0623 42C70.7103 42 70.4223 41.888 70.1983 41.664C69.9743 41.424 69.8623 41.128 69.8623 40.776V34.416C69.8623 33.856 69.7823 33.344 69.6223 32.88C69.4783 32.416 69.2223 32.048 68.8543 31.776C68.4863 31.504 67.9743 31.368 67.3183 31.368C66.6943 31.368 66.1423 31.504 65.6623 31.776C65.1823 32.048 64.8063 32.416 64.5343 32.88C64.2783 33.344 64.1503 33.856 64.1503 34.416V40.776C64.1503 41.128 64.0303 41.424 63.7903 41.664C63.5663 41.888 63.2863 42 62.9503 42C62.5983 42 62.3103 41.888 62.0863 41.664C61.8623 41.424 61.7503 41.128 61.7503 40.776V30.6C61.7503 30.248 61.8623 29.96 62.0863 29.736C62.3103 29.496 62.5983 29.376 62.9503 29.376C63.2863 29.376 63.5663 29.496 63.7903 29.736C64.0303 29.96 64.1503 30.248 64.1503 30.6V32.016L63.6943 32.28C63.8063 31.928 63.9903 31.568 64.2463 31.2C64.5023 30.832 64.8223 30.496 65.2063 30.192C65.6063 29.888 66.0463 29.64 66.5263 29.448C67.0063 29.256 67.5263 29.16 68.0863 29.16ZM86.061 40.776C86.061 41.128 85.949 41.424 85.725 41.664C85.501 41.888 85.213 42 84.861 42C84.525 42 84.237 41.888 83.997 41.664C83.773 41.424 83.661 41.128 83.661 40.776V30.504C83.661 30.152 83.773 29.864 83.997 29.64C84.237 29.4 84.525 29.28 84.861 29.28C85.213 29.28 85.501 29.4 85.725 29.64C85.949 29.864 86.061 30.152 86.061 30.504V40.776ZM84.837 27.696C84.373 27.696 84.037 27.616 83.829 27.456C83.621 27.28 83.517 26.992 83.517 26.592V26.208C83.517 25.808 83.629 25.528 83.853 25.368C84.077 25.208 84.413 25.128 84.861 25.128C85.341 25.128 85.685 25.216 85.893 25.392C86.101 25.552 86.205 25.824 86.205 26.208V26.592C86.205 27.008 86.093 27.296 85.869 27.456C85.661 27.616 85.317 27.696 84.837 27.696ZM96.9214 25.2C98.3934 25.2 99.5054 25.56 100.257 26.28C101.025 27 101.409 28.048 101.409 29.424C101.409 30.144 101.233 30.8 100.881 31.392C100.545 31.968 100.041 32.424 99.3694 32.76C98.7134 33.096 97.8894 33.272 96.8974 33.288L96.9454 32.4C97.4734 32.4 98.0414 32.472 98.6494 32.616C99.2734 32.76 99.8574 33.008 100.401 33.36C100.945 33.712 101.393 34.192 101.745 34.8C102.097 35.392 102.273 36.136 102.273 37.032C102.273 38.008 102.113 38.824 101.793 39.48C101.473 40.12 101.049 40.624 100.521 40.992C99.9934 41.36 99.4094 41.624 98.7694 41.784C98.1454 41.928 97.5294 42 96.9214 42H90.7774C90.4414 42 90.1534 41.888 89.9134 41.664C89.6734 41.424 89.5534 41.128 89.5534 40.776V26.424C89.5534 26.072 89.6734 25.784 89.9134 25.56C90.1534 25.32 90.4414 25.2 90.7774 25.2H96.9214ZM96.5854 27.552H91.8574L92.1454 27.168V32.328L91.8814 32.064H96.6334C97.2094 32.048 97.7134 31.856 98.1454 31.488C98.5934 31.104 98.8174 30.544 98.8174 29.808C98.8174 29.056 98.6174 28.496 98.2174 28.128C97.8174 27.744 97.2734 27.552 96.5854 27.552ZM96.7534 34.416H91.9774L92.1454 34.248V39.912L91.9534 39.696H96.8974C97.7294 39.696 98.4014 39.48 98.9134 39.048C99.4254 38.6 99.6814 37.928 99.6814 37.032C99.6814 36.28 99.5294 35.72 99.2254 35.352C98.9214 34.984 98.5454 34.736 98.0974 34.608C97.6494 34.48 97.2014 34.416 96.7534 34.416ZM117.065 35.688C117.065 36.968 116.785 38.104 116.225 39.096C115.665 40.072 114.905 40.84 113.945 41.4C112.985 41.96 111.905 42.24 110.705 42.24C109.505 42.24 108.425 41.96 107.465 41.4C106.505 40.84 105.737 40.072 105.161 39.096C104.601 38.104 104.321 36.968 104.321 35.688C104.321 34.392 104.601 33.256 105.161 32.28C105.737 31.288 106.505 30.512 107.465 29.952C108.425 29.376 109.505 29.088 110.705 29.088C111.905 29.088 112.985 29.376 113.945 29.952C114.905 30.512 115.665 31.288 116.225 32.28C116.785 33.256 117.065 34.392 117.065 35.688ZM114.665 35.688C114.665 34.808 114.489 34.048 114.137 33.408C113.785 32.752 113.305 32.24 112.697 31.872C112.105 31.488 111.441 31.296 110.705 31.296C109.969 31.296 109.297 31.488 108.689 31.872C108.081 32.24 107.601 32.752 107.249 33.408C106.897 34.048 106.721 34.808 106.721 35.688C106.721 36.536 106.897 37.288 107.249 37.944C107.601 38.6 108.081 39.112 108.689 39.48C109.297 39.848 109.969 40.032 110.705 40.032C111.441 40.032 112.105 39.848 112.697 39.48C113.305 39.112 113.785 38.6 114.137 37.944C114.489 37.288 114.665 36.536 114.665 35.688ZM122.374 40.776C122.374 41.128 122.254 41.424 122.014 41.664C121.79 41.888 121.51 42 121.174 42C120.838 42 120.55 41.888 120.31 41.664C120.086 41.424 119.974 41.128 119.974 40.776V25.464C119.974 25.112 120.094 24.824 120.334 24.6C120.574 24.36 120.862 24.24 121.198 24.24C121.55 24.24 121.83 24.36 122.038 24.6C122.262 24.824 122.374 25.112 122.374 25.464V40.776ZM136.055 24.24C136.407 24.24 136.695 24.352 136.919 24.576C137.143 24.8 137.255 25.096 137.255 25.464V40.776C137.255 41.128 137.143 41.424 136.919 41.664C136.695 41.888 136.407 42 136.055 42C135.719 42 135.431 41.888 135.191 41.664C134.967 41.424 134.855 41.128 134.855 40.776V39.048L135.359 39.072C135.359 39.36 135.239 39.688 134.999 40.056C134.775 40.408 134.463 40.752 134.063 41.088C133.663 41.424 133.191 41.704 132.647 41.928C132.103 42.136 131.519 42.24 130.895 42.24C129.791 42.24 128.799 41.96 127.919 41.4C127.039 40.824 126.343 40.048 125.831 39.072C125.319 38.08 125.063 36.944 125.063 35.664C125.063 34.384 125.319 33.256 125.831 32.28C126.343 31.288 127.031 30.512 127.895 29.952C128.775 29.376 129.751 29.088 130.823 29.088C131.495 29.088 132.119 29.2 132.695 29.424C133.287 29.648 133.799 29.936 134.231 30.288C134.663 30.64 134.999 31.016 135.239 31.416C135.479 31.8 135.599 32.168 135.599 32.52L134.855 32.592V25.464C134.855 25.112 134.967 24.824 135.191 24.6C135.431 24.36 135.719 24.24 136.055 24.24ZM131.159 40.032C131.927 40.032 132.591 39.84 133.151 39.456C133.727 39.072 134.175 38.552 134.495 37.896C134.815 37.24 134.975 36.496 134.975 35.664C134.975 34.832 134.815 34.088 134.495 33.432C134.175 32.776 133.727 32.256 133.151 31.872C132.575 31.488 131.911 31.296 131.159 31.296C130.423 31.296 129.767 31.488 129.191 31.872C128.631 32.256 128.183 32.776 127.847 33.432C127.527 34.088 127.367 34.832 127.367 35.664C127.367 36.496 127.527 37.24 127.847 37.896C128.183 38.552 128.631 39.072 129.191 39.456C129.767 39.84 130.423 40.032 131.159 40.032Z" fill="#8584FF"/>
</svg>
