<svg width="467" height="23" viewBox="0 0 467 23" fill="none" xmlns="http://www.w3.org/2000/svg">
<path d="M7.944 4.32L2.544 17.28C2.448 17.536 2.304 17.736 2.112 17.88C1.92 18.024 1.704 18.096 1.464 18.096C1.112 18.096 0.848 18 0.672 17.808C0.496 17.6 0.4 17.344 0.384 17.04C0.384 16.928 0.408 16.8 0.456 16.656L6.552 1.92C6.664 1.648 6.824 1.44 7.032 1.296C7.256 1.152 7.496 1.088 7.752 1.104C7.992 1.104 8.216 1.176 8.424 1.32C8.632 1.464 8.784 1.664 8.88 1.92L14.904 16.44C14.968 16.6 15 16.76 15 16.92C15 17.272 14.88 17.56 14.64 17.784C14.416 17.992 14.16 18.096 13.872 18.096C13.632 18.096 13.408 18.024 13.2 17.88C13.008 17.72 12.864 17.52 12.768 17.28L7.32 4.392L7.944 4.32ZM3.504 13.872L4.584 11.568H11.376L11.784 13.872H3.504ZM27.1104 1.2C28.5824 1.2 29.6944 1.56 30.4464 2.28C31.2144 3 31.5984 4.048 31.5984 5.424C31.5984 6.144 31.4224 6.8 31.0704 7.392C30.7344 7.968 30.2304 8.424 29.5584 8.76C28.9024 9.096 28.0784 9.272 27.0864 9.288L27.1344 8.4C27.6624 8.4 28.2304 8.472 28.8384 8.616C29.4624 8.76 30.0464 9.008 30.5904 9.36C31.1344 9.712 31.5824 10.192 31.9344 10.8C32.2864 11.392 32.4624 12.136 32.4624 13.032C32.4624 14.008 32.3024 14.824 31.9824 15.48C31.6624 16.12 31.2384 16.624 30.7104 16.992C30.1824 17.36 29.5984 17.624 28.9584 17.784C28.3344 17.928 27.7184 18 27.1104 18H20.9664C20.6304 18 20.3424 17.888 20.1024 17.664C19.8624 17.424 19.7424 17.128 19.7424 16.776V2.424C19.7424 2.072 19.8624 1.784 20.1024 1.56C20.3424 1.32 20.6304 1.2 20.9664 1.2H27.1104ZM26.7744 3.552H22.0464L22.3344 3.168V8.328L22.0704 8.064H26.8224C27.3984 8.048 27.9024 7.856 28.3344 7.488C28.7824 7.104 29.0064 6.544 29.0064 5.808C29.0064 5.056 28.8064 4.496 28.4064 4.128C28.0064 3.744 27.4624 3.552 26.7744 3.552ZM26.9424 10.416H22.1664L22.3344 10.248V15.912L22.1424 15.696H27.0864C27.9184 15.696 28.5904 15.48 29.1024 15.048C29.6144 14.6 29.8704 13.928 29.8704 13.032C29.8704 12.28 29.7184 11.72 29.4144 11.352C29.1104 10.984 28.7344 10.736 28.2864 10.608C27.8384 10.48 27.3904 10.416 26.9424 10.416ZM49.7736 2.16C50.1256 2.336 50.3256 2.608 50.3736 2.976C50.4376 3.344 50.3496 3.68 50.1096 3.984C49.9336 4.224 49.7016 4.36 49.4136 4.392C49.1416 4.424 48.8696 4.368 48.5976 4.224C48.1336 3.984 47.6456 3.792 47.1336 3.648C46.6216 3.504 46.0776 3.432 45.5016 3.432C44.5896 3.432 43.7656 3.584 43.0296 3.888C42.3096 4.176 41.6856 4.6 41.1576 5.16C40.6296 5.704 40.2216 6.352 39.9336 7.104C39.6616 7.856 39.5256 8.688 39.5256 9.6C39.5256 10.608 39.6776 11.504 39.9816 12.288C40.2856 13.056 40.7016 13.712 41.2296 14.256C41.7736 14.784 42.4056 15.184 43.1256 15.456C43.8616 15.712 44.6536 15.84 45.5016 15.84C46.0456 15.84 46.5736 15.776 47.0856 15.648C47.6136 15.52 48.1096 15.328 48.5736 15.072C48.8616 14.928 49.1416 14.88 49.4136 14.928C49.7016 14.96 49.9336 15.096 50.1096 15.336C50.3816 15.672 50.4776 16.016 50.3976 16.368C50.3336 16.704 50.1336 16.96 49.7976 17.136C49.3976 17.36 48.9576 17.552 48.4776 17.712C47.9976 17.872 47.5096 18 47.0136 18.096C46.5176 18.192 46.0136 18.24 45.5016 18.24C44.3496 18.24 43.2616 18.048 42.2376 17.664C41.2136 17.28 40.3016 16.72 39.5016 15.984C38.7016 15.248 38.0696 14.344 37.6056 13.272C37.1576 12.2 36.9336 10.976 36.9336 9.6C36.9336 8.368 37.1416 7.232 37.5576 6.192C37.9896 5.136 38.5896 4.232 39.3576 3.48C40.1416 2.712 41.0536 2.12 42.0936 1.704C43.1336 1.272 44.2696 1.056 45.5016 1.056C46.2696 1.056 47.0136 1.152 47.7336 1.344C48.4696 1.536 49.1496 1.808 49.7736 2.16ZM62.5834 1.2C63.7514 1.2 64.7834 1.424 65.6794 1.872C66.5754 2.304 67.3194 2.912 67.9114 3.696C68.5194 4.464 68.9754 5.36 69.2794 6.384C69.5834 7.392 69.7354 8.464 69.7354 9.6C69.7354 11.152 69.4634 12.568 68.9194 13.848C68.3754 15.112 67.5754 16.12 66.5194 16.872C65.4634 17.624 64.1514 18 62.5834 18H56.7274C56.3914 18 56.1034 17.888 55.8634 17.664C55.6234 17.424 55.5034 17.128 55.5034 16.776V2.424C55.5034 2.072 55.6234 1.784 55.8634 1.56C56.1034 1.32 56.3914 1.2 56.7274 1.2H62.5834ZM62.3434 15.696C63.4794 15.696 64.3994 15.416 65.1034 14.856C65.8074 14.296 66.3194 13.56 66.6394 12.648C66.9754 11.72 67.1434 10.704 67.1434 9.6C67.1434 8.784 67.0474 8.016 66.8554 7.296C66.6794 6.56 66.3914 5.912 65.9914 5.352C65.6074 4.776 65.1114 4.328 64.5034 4.008C63.9114 3.672 63.1914 3.504 62.3434 3.504H57.8074L58.0234 3.288V15.936L57.8794 15.696H62.3434ZM76.3071 1.2H84.6111C84.9471 1.2 85.2271 1.312 85.4511 1.536C85.6911 1.76 85.8111 2.04 85.8111 2.376C85.8111 2.712 85.6911 2.984 85.4511 3.192C85.2271 3.4 84.9471 3.504 84.6111 3.504H77.3631L77.6031 3.096V8.472L77.3871 8.232H83.5311C83.8671 8.232 84.1471 8.344 84.3711 8.568C84.6111 8.792 84.7311 9.08 84.7311 9.432C84.7311 9.768 84.6111 10.04 84.3711 10.248C84.1471 10.456 83.8671 10.56 83.5311 10.56H77.4351L77.6031 10.344V15.888L77.4351 15.696H84.6111C84.9471 15.696 85.2271 15.816 85.4511 16.056C85.6911 16.28 85.8111 16.544 85.8111 16.848C85.8111 17.184 85.6911 17.464 85.4511 17.688C85.2271 17.896 84.9471 18 84.6111 18H76.3071C75.9711 18 75.6831 17.888 75.4431 17.664C75.2031 17.424 75.0831 17.128 75.0831 16.776V2.424C75.0831 2.072 75.2031 1.784 75.4431 1.56C75.6831 1.32 75.9711 1.2 76.3071 1.2ZM92.466 18C92.082 18 91.77 17.888 91.53 17.664C91.306 17.424 91.194 17.128 91.194 16.776V2.424C91.194 2.072 91.314 1.784 91.554 1.56C91.794 1.32 92.082 1.2 92.418 1.2H100.53C100.882 1.2 101.17 1.312 101.394 1.536C101.634 1.76 101.754 2.04 101.754 2.376C101.754 2.68 101.634 2.944 101.394 3.168C101.17 3.392 100.882 3.504 100.53 3.504H93.522L93.69 3.264V8.616L93.546 8.328H99.45C99.802 8.328 100.09 8.44 100.314 8.664C100.554 8.888 100.674 9.168 100.674 9.504C100.674 9.808 100.554 10.072 100.314 10.296C100.09 10.52 99.802 10.632 99.45 10.632H93.498L93.69 10.44V16.776C93.69 17.128 93.57 17.424 93.33 17.664C93.09 17.888 92.802 18 92.466 18ZM114.707 18.24C113.491 18.24 112.355 18.024 111.299 17.592C110.243 17.144 109.315 16.528 108.515 15.744C107.731 14.944 107.115 14.024 106.667 12.984C106.219 11.944 105.995 10.816 105.995 9.6C105.995 8.384 106.219 7.256 106.667 6.216C107.115 5.176 107.731 4.264 108.515 3.48C109.315 2.68 110.243 2.064 111.299 1.632C112.355 1.184 113.491 0.959999 114.707 0.959999C115.491 0.959999 116.251 1.048 116.987 1.224C117.723 1.4 118.387 1.656 118.979 1.992C119.187 2.104 119.339 2.256 119.435 2.448C119.531 2.624 119.579 2.8 119.579 2.976C119.579 3.312 119.467 3.608 119.243 3.864C119.035 4.104 118.771 4.224 118.451 4.224C118.339 4.224 118.219 4.208 118.091 4.176C117.979 4.144 117.875 4.104 117.779 4.056C117.331 3.832 116.851 3.664 116.339 3.552C115.827 3.424 115.283 3.36 114.707 3.36C113.555 3.36 112.515 3.64 111.587 4.2C110.659 4.744 109.923 5.488 109.379 6.432C108.851 7.376 108.587 8.432 108.587 9.6C108.587 10.752 108.851 11.808 109.379 12.768C109.923 13.712 110.659 14.464 111.587 15.024C112.515 15.568 113.555 15.84 114.707 15.84C115.267 15.84 115.859 15.776 116.483 15.648C117.107 15.504 117.635 15.32 118.067 15.096L117.875 15.744V11.184L118.259 11.52H115.115C114.763 11.52 114.467 11.408 114.227 11.184C114.003 10.96 113.891 10.672 113.891 10.32C113.891 9.968 114.003 9.68 114.227 9.456C114.467 9.232 114.763 9.12 115.115 9.12H119.267C119.603 9.12 119.883 9.24 120.107 9.48C120.347 9.704 120.467 9.992 120.467 10.344V15.672C120.467 15.928 120.403 16.144 120.275 16.32C120.147 16.496 120.003 16.64 119.843 16.752C119.123 17.2 118.323 17.56 117.443 17.832C116.579 18.104 115.667 18.24 114.707 18.24ZM127.313 1.2C127.633 1.2 127.913 1.32 128.153 1.56C128.409 1.784 128.537 2.072 128.537 2.424V16.776C128.521 17.128 128.385 17.424 128.129 17.664C127.889 17.888 127.601 18 127.265 18C126.897 18 126.593 17.888 126.353 17.664C126.129 17.424 126.017 17.128 126.017 16.776V2.424C126.017 2.072 126.137 1.784 126.377 1.56C126.617 1.32 126.929 1.2 127.313 1.2ZM138.137 1.2C138.521 1.2 138.825 1.32 139.049 1.56C139.273 1.784 139.385 2.072 139.385 2.424V16.776C139.385 17.128 139.265 17.424 139.025 17.664C138.801 17.888 138.497 18 138.113 18C137.777 18 137.489 17.888 137.249 17.664C137.009 17.424 136.889 17.128 136.889 16.776V2.424C136.889 2.072 137.009 1.784 137.249 1.56C137.505 1.32 137.801 1.2 138.137 1.2ZM127.217 8.352H138.161L138.137 10.656H127.193L127.217 8.352ZM148.187 16.776C148.171 17.128 148.035 17.424 147.779 17.664C147.539 17.888 147.251 18 146.915 18C146.547 18 146.243 17.888 146.003 17.664C145.779 17.424 145.667 17.128 145.667 16.776V2.424C145.667 2.072 145.787 1.784 146.027 1.56C146.267 1.32 146.579 1.2 146.963 1.2C147.283 1.2 147.563 1.32 147.803 1.56C148.059 1.784 148.187 2.072 148.187 2.424V16.776ZM158.402 18.24C157.458 18.24 156.594 18.024 155.81 17.592C155.026 17.16 154.394 16.56 153.914 15.792C153.77 15.552 153.698 15.328 153.698 15.12C153.698 14.784 153.826 14.504 154.082 14.28C154.338 14.056 154.594 13.944 154.85 13.944C155.074 13.944 155.274 14.008 155.45 14.136C155.642 14.248 155.818 14.392 155.978 14.568C156.298 14.984 156.658 15.304 157.058 15.528C157.458 15.736 157.906 15.84 158.402 15.84C158.978 15.84 159.498 15.712 159.962 15.456C160.426 15.184 160.794 14.824 161.066 14.376C161.338 13.912 161.474 13.408 161.474 12.864V2.424C161.474 2.072 161.602 1.784 161.858 1.56C162.114 1.32 162.41 1.2 162.746 1.2C163.114 1.2 163.41 1.32 163.634 1.56C163.858 1.784 163.97 2.072 163.97 2.424V12.864C163.97 13.84 163.722 14.736 163.226 15.552C162.746 16.368 162.082 17.024 161.234 17.52C160.402 18 159.458 18.24 158.402 18.24ZM181.984 18.024C181.616 18.024 181.32 17.872 181.096 17.568L175.12 9.864L176.968 7.992L183.064 15.936C183.256 16.192 183.352 16.472 183.352 16.776C183.352 17.16 183.208 17.464 182.92 17.688C182.632 17.912 182.32 18.024 181.984 18.024ZM182.104 1.128C182.424 1.128 182.688 1.256 182.896 1.512C183.104 1.768 183.208 2.032 183.208 2.304C183.208 2.592 183.088 2.856 182.848 3.096L172.504 12.912L172.36 10.08L181.144 1.584C181.432 1.28 181.752 1.128 182.104 1.128ZM171.52 18C171.152 18 170.848 17.888 170.608 17.664C170.384 17.424 170.272 17.128 170.272 16.776V2.424C170.272 2.072 170.392 1.784 170.632 1.56C170.872 1.32 171.184 1.2 171.568 1.2C171.936 1.2 172.232 1.32 172.456 1.56C172.68 1.784 172.792 2.072 172.792 2.424V16.776C172.776 17.128 172.656 17.424 172.432 17.664C172.208 17.888 171.904 18 171.52 18ZM197.851 15.648C198.187 15.648 198.467 15.76 198.691 15.984C198.931 16.208 199.051 16.488 199.051 16.824C199.051 17.16 198.931 17.44 198.691 17.664C198.467 17.888 198.187 18 197.851 18H189.787C189.435 18 189.139 17.888 188.899 17.664C188.675 17.424 188.563 17.128 188.563 16.776V2.424C188.563 2.072 188.683 1.784 188.923 1.56C189.163 1.32 189.475 1.2 189.859 1.2C190.179 1.2 190.459 1.32 190.699 1.56C190.955 1.784 191.083 2.072 191.083 2.424V16.056L190.579 15.648H197.851ZM205.453 1.176C205.645 1.176 205.845 1.224 206.053 1.32C206.261 1.416 206.421 1.552 206.533 1.728L212.629 11.016L211.597 10.968L217.813 1.728C218.069 1.36 218.397 1.176 218.797 1.176C219.117 1.176 219.397 1.296 219.637 1.536C219.893 1.76 220.021 2.048 220.021 2.4V16.776C220.021 17.128 219.909 17.424 219.685 17.664C219.461 17.888 219.165 18 218.797 18C218.413 18 218.101 17.888 217.861 17.664C217.637 17.424 217.525 17.128 217.525 16.776V4.608L218.293 4.776L213.013 12.816C212.901 12.96 212.757 13.088 212.581 13.2C212.405 13.296 212.221 13.336 212.029 13.32C211.853 13.336 211.669 13.296 211.477 13.2C211.301 13.088 211.157 12.96 211.045 12.816L205.957 4.896L206.533 3.936V16.776C206.533 17.128 206.421 17.424 206.197 17.664C205.989 17.888 205.709 18 205.357 18C205.021 18 204.741 17.888 204.517 17.664C204.309 17.424 204.205 17.128 204.205 16.776V2.4C204.205 2.064 204.325 1.776 204.565 1.536C204.821 1.296 205.117 1.176 205.453 1.176ZM238.939 1.2C239.259 1.2 239.515 1.312 239.707 1.536C239.915 1.744 240.019 2.008 240.019 2.328V16.776C240.019 17.128 239.899 17.424 239.659 17.664C239.435 17.888 239.147 18 238.795 18C238.635 18 238.459 17.968 238.267 17.904C238.091 17.84 237.955 17.752 237.859 17.64L227.995 4.848L228.547 4.536V16.896C228.547 17.2 228.443 17.464 228.235 17.688C228.027 17.896 227.763 18 227.443 18C227.107 18 226.835 17.896 226.627 17.688C226.435 17.464 226.339 17.2 226.339 16.896V2.424C226.339 2.056 226.459 1.76 226.699 1.536C226.939 1.312 227.227 1.2 227.563 1.2C227.739 1.2 227.923 1.24 228.115 1.32C228.323 1.384 228.475 1.488 228.571 1.632L238.195 14.16L237.835 14.496V2.328C237.835 2.008 237.939 1.744 238.147 1.536C238.355 1.312 238.619 1.2 238.939 1.2ZM261.653 9.6C261.653 10.816 261.453 11.952 261.053 13.008C260.653 14.048 260.085 14.96 259.349 15.744C258.629 16.528 257.773 17.144 256.781 17.592C255.789 18.024 254.701 18.24 253.517 18.24C252.349 18.24 251.269 18.024 250.277 17.592C249.285 17.144 248.421 16.528 247.685 15.744C246.965 14.96 246.405 14.048 246.005 13.008C245.621 11.952 245.429 10.816 245.429 9.6C245.429 8.384 245.621 7.256 246.005 6.216C246.405 5.16 246.965 4.24 247.685 3.456C248.421 2.672 249.285 2.064 250.277 1.632C251.269 1.184 252.349 0.959999 253.517 0.959999C254.701 0.959999 255.789 1.184 256.781 1.632C257.773 2.064 258.629 2.672 259.349 3.456C260.085 4.24 260.653 5.16 261.053 6.216C261.453 7.256 261.653 8.384 261.653 9.6ZM259.061 9.6C259.061 8.416 258.821 7.352 258.341 6.408C257.877 5.464 257.229 4.72 256.397 4.176C255.565 3.632 254.605 3.36 253.517 3.36C252.445 3.36 251.493 3.632 250.661 4.176C249.829 4.72 249.181 5.464 248.717 6.408C248.253 7.336 248.021 8.4 248.021 9.6C248.021 10.784 248.253 11.848 248.717 12.792C249.181 13.736 249.829 14.48 250.661 15.024C251.493 15.568 252.445 15.84 253.517 15.84C254.605 15.84 255.565 15.568 256.397 15.024C257.229 14.48 257.877 13.736 258.341 12.792C258.821 11.848 259.061 10.784 259.061 9.6ZM273.767 1.2C274.615 1.2 275.399 1.432 276.119 1.896C276.839 2.344 277.415 2.96 277.847 3.744C278.279 4.528 278.495 5.408 278.495 6.384C278.495 7.36 278.279 8.248 277.847 9.048C277.415 9.832 276.839 10.464 276.119 10.944C275.399 11.408 274.615 11.64 273.767 11.64H269.135L269.327 11.256V16.776C269.327 17.128 269.215 17.424 268.991 17.664C268.783 17.888 268.503 18 268.151 18C267.815 18 267.535 17.888 267.311 17.664C267.103 17.424 266.999 17.128 266.999 16.776V2.424C266.999 2.072 267.119 1.784 267.359 1.56C267.599 1.32 267.887 1.2 268.223 1.2H273.767ZM273.767 9.336C274.183 9.336 274.559 9.2 274.895 8.928C275.247 8.656 275.527 8.296 275.735 7.848C275.959 7.4 276.071 6.912 276.071 6.384C276.071 5.856 275.959 5.376 275.735 4.944C275.527 4.512 275.247 4.168 274.895 3.912C274.559 3.64 274.183 3.504 273.767 3.504H269.087L269.327 3.144V9.648L269.111 9.336H273.767ZM299.557 18.888C299.845 18.888 300.101 19 300.325 19.224C300.565 19.464 300.685 19.736 300.685 20.04C300.685 20.376 300.525 20.696 300.205 21C299.901 21.304 299.501 21.576 299.005 21.816C298.525 22.056 298.013 22.24 297.469 22.368C296.941 22.512 296.453 22.584 296.005 22.584C295.029 22.584 294.237 22.488 293.629 22.296C293.021 22.104 292.509 21.888 292.093 21.648C291.677 21.408 291.269 21.192 290.869 21C290.485 20.808 290.021 20.712 289.477 20.712C289.173 20.712 288.925 20.76 288.733 20.856C288.541 20.952 288.341 21.048 288.133 21.144C287.925 21.256 287.661 21.312 287.341 21.312C287.005 21.312 286.725 21.184 286.501 20.928C286.277 20.672 286.165 20.392 286.165 20.088C286.165 19.576 286.397 19.232 286.861 19.056L291.541 17.328L293.725 17.712L289.333 19.296L290.365 18.648C290.957 18.648 291.477 18.736 291.925 18.912C292.389 19.088 292.829 19.288 293.245 19.512C293.677 19.752 294.117 19.96 294.565 20.136C295.013 20.312 295.533 20.4 296.125 20.4C296.621 20.4 297.037 20.32 297.373 20.16C297.709 20 297.989 19.84 298.213 19.68C298.485 19.488 298.717 19.304 298.909 19.128C299.117 18.968 299.333 18.888 299.557 18.888ZM299.125 9.6C299.125 10.816 298.925 11.952 298.525 13.008C298.125 14.048 297.557 14.96 296.821 15.744C296.101 16.528 295.245 17.144 294.253 17.592C293.261 18.024 292.173 18.24 290.989 18.24C289.821 18.24 288.741 18.024 287.749 17.592C286.757 17.144 285.893 16.528 285.157 15.744C284.437 14.96 283.877 14.048 283.477 13.008C283.093 11.952 282.901 10.816 282.901 9.6C282.901 8.384 283.093 7.256 283.477 6.216C283.877 5.16 284.437 4.24 285.157 3.456C285.893 2.672 286.757 2.064 287.749 1.632C288.741 1.184 289.821 0.959999 290.989 0.959999C292.173 0.959999 293.261 1.184 294.253 1.632C295.245 2.064 296.101 2.672 296.821 3.456C297.557 4.24 298.125 5.16 298.525 6.216C298.925 7.256 299.125 8.384 299.125 9.6ZM296.533 9.6C296.533 8.416 296.293 7.352 295.813 6.408C295.349 5.464 294.701 4.72 293.869 4.176C293.037 3.632 292.077 3.36 290.989 3.36C289.917 3.36 288.965 3.632 288.133 4.176C287.301 4.72 286.653 5.464 286.189 6.408C285.725 7.336 285.493 8.4 285.493 9.6C285.493 10.784 285.725 11.848 286.189 12.792C286.653 13.736 287.301 14.48 288.133 15.024C288.965 15.568 289.917 15.84 290.989 15.84C292.077 15.84 293.037 15.568 293.869 15.024C294.701 14.48 295.349 13.736 295.813 12.792C296.293 11.848 296.533 10.784 296.533 9.6ZM305.934 18C305.55 18 305.214 17.888 304.926 17.664C304.638 17.424 304.494 17.128 304.494 16.776V2.424C304.494 2.072 304.614 1.784 304.854 1.56C305.094 1.32 305.382 1.2 305.718 1.2H312.486C313.35 1.2 314.142 1.416 314.862 1.848C315.582 2.264 316.158 2.848 316.59 3.6C317.038 4.336 317.262 5.184 317.262 6.144C317.262 6.784 317.134 7.4 316.878 7.992C316.622 8.568 316.278 9.08 315.846 9.528C315.414 9.976 314.926 10.312 314.382 10.536L314.118 10.08C314.614 10.256 315.046 10.512 315.414 10.848C315.782 11.168 316.07 11.552 316.278 12C316.502 12.432 316.622 12.928 316.638 13.488C316.686 13.984 316.726 14.4 316.758 14.736C316.806 15.056 316.87 15.32 316.95 15.528C317.03 15.736 317.174 15.896 317.382 16.008C317.67 16.168 317.846 16.408 317.91 16.728C317.99 17.048 317.926 17.336 317.718 17.592C317.574 17.784 317.39 17.912 317.166 17.976C316.958 18.024 316.742 18.032 316.518 18C316.294 17.952 316.102 17.888 315.942 17.808C315.686 17.648 315.422 17.424 315.15 17.136C314.894 16.832 314.686 16.416 314.526 15.888C314.366 15.36 314.286 14.664 314.286 13.8C314.286 13.4 314.222 13.056 314.094 12.768C313.966 12.48 313.79 12.248 313.566 12.072C313.342 11.88 313.078 11.744 312.774 11.664C312.47 11.568 312.134 11.52 311.766 11.52H306.678L307.014 11.04V16.776C307.014 17.128 306.918 17.424 306.726 17.664C306.534 17.888 306.27 18 305.934 18ZM306.702 9.432H312.438C312.806 9.416 313.158 9.272 313.494 9C313.846 8.712 314.126 8.328 314.334 7.848C314.558 7.368 314.67 6.824 314.67 6.216C314.67 5.448 314.438 4.808 313.974 4.296C313.526 3.768 312.99 3.504 312.366 3.504H306.75L307.014 2.88V9.936L306.702 9.432ZM328.39 18.24C327.238 18.24 326.214 18.08 325.318 17.76C324.422 17.44 323.566 16.912 322.75 16.176C322.574 16.048 322.438 15.896 322.342 15.72C322.262 15.528 322.222 15.336 322.222 15.144C322.222 14.84 322.334 14.568 322.558 14.328C322.782 14.088 323.062 13.968 323.398 13.968C323.654 13.968 323.894 14.056 324.118 14.232C324.726 14.792 325.358 15.216 326.014 15.504C326.686 15.792 327.47 15.936 328.366 15.936C329.006 15.936 329.59 15.832 330.118 15.624C330.662 15.416 331.094 15.136 331.414 14.784C331.734 14.432 331.894 14.024 331.894 13.56C331.894 12.984 331.726 12.512 331.39 12.144C331.07 11.76 330.598 11.448 329.974 11.208C329.366 10.952 328.63 10.736 327.766 10.56C326.966 10.416 326.246 10.216 325.606 9.96C324.982 9.704 324.446 9.384 323.998 9C323.55 8.6 323.206 8.128 322.966 7.584C322.726 7.04 322.606 6.408 322.606 5.688C322.606 4.712 322.862 3.872 323.374 3.168C323.886 2.464 324.582 1.92 325.462 1.536C326.342 1.152 327.334 0.959999 328.438 0.959999C329.446 0.959999 330.39 1.12 331.27 1.44C332.15 1.744 332.862 2.16 333.406 2.688C333.79 3.024 333.982 3.384 333.982 3.768C333.982 4.056 333.862 4.328 333.622 4.584C333.398 4.824 333.134 4.944 332.83 4.944C332.606 4.944 332.414 4.88 332.254 4.752C331.998 4.48 331.654 4.24 331.222 4.032C330.79 3.808 330.326 3.624 329.83 3.48C329.35 3.336 328.886 3.264 328.438 3.264C327.718 3.264 327.102 3.368 326.59 3.576C326.078 3.768 325.686 4.04 325.414 4.392C325.142 4.728 325.006 5.128 325.006 5.592C325.006 6.136 325.158 6.584 325.462 6.936C325.782 7.288 326.222 7.576 326.782 7.8C327.342 8.008 327.982 8.2 328.702 8.376C329.582 8.568 330.366 8.784 331.054 9.024C331.758 9.264 332.35 9.576 332.83 9.96C333.31 10.328 333.678 10.792 333.934 11.352C334.19 11.912 334.318 12.608 334.318 13.44C334.318 14.4 334.046 15.24 333.502 15.96C332.958 16.68 332.238 17.24 331.342 17.64C330.462 18.04 329.478 18.24 328.39 18.24ZM345.141 18C344.757 18 344.445 17.888 344.205 17.664C343.981 17.424 343.869 17.128 343.869 16.776V2.4H346.437V16.776C346.437 17.128 346.309 17.424 346.053 17.664C345.813 17.888 345.509 18 345.141 18ZM339.693 3.504C339.357 3.504 339.069 3.4 338.829 3.192C338.589 2.968 338.469 2.68 338.469 2.328C338.469 1.992 338.589 1.72 338.829 1.512C339.069 1.304 339.357 1.2 339.693 1.2H350.613C350.949 1.2 351.229 1.312 351.453 1.536C351.693 1.744 351.813 2.016 351.813 2.352C351.813 2.704 351.693 2.984 351.453 3.192C351.229 3.4 350.949 3.504 350.613 3.504H339.693ZM368.856 1.176C369.208 1.176 369.488 1.296 369.696 1.536C369.904 1.76 370.008 2.048 370.008 2.4V11.496C370.008 12.776 369.728 13.92 369.168 14.928C368.608 15.936 367.84 16.728 366.864 17.304C365.888 17.864 364.76 18.144 363.48 18.144C362.216 18.144 361.088 17.864 360.096 17.304C359.12 16.728 358.344 15.936 357.768 14.928C357.208 13.92 356.928 12.776 356.928 11.496V2.4C356.928 2.048 357.048 1.76 357.288 1.536C357.528 1.296 357.84 1.176 358.224 1.176C358.528 1.176 358.8 1.296 359.04 1.536C359.296 1.76 359.424 2.048 359.424 2.4V11.496C359.424 12.344 359.608 13.088 359.976 13.728C360.36 14.352 360.864 14.848 361.488 15.216C362.112 15.568 362.776 15.744 363.48 15.744C364.248 15.744 364.952 15.568 365.592 15.216C366.232 14.848 366.744 14.352 367.128 13.728C367.528 13.088 367.728 12.344 367.728 11.496V2.4C367.728 2.048 367.824 1.76 368.016 1.536C368.224 1.296 368.504 1.176 368.856 1.176ZM388.561 1.152C388.897 1.152 389.185 1.264 389.425 1.488C389.665 1.712 389.785 1.984 389.785 2.304C389.785 2.48 389.745 2.664 389.665 2.856L383.593 17.208C383.465 17.48 383.289 17.68 383.065 17.808C382.857 17.936 382.641 18 382.417 18C382.193 17.984 381.977 17.912 381.769 17.784C381.577 17.656 381.425 17.472 381.313 17.232L375.241 2.856C375.209 2.776 375.185 2.696 375.169 2.616C375.153 2.52 375.145 2.424 375.145 2.328C375.145 1.96 375.281 1.672 375.553 1.464C375.825 1.256 376.089 1.152 376.345 1.152C376.857 1.152 377.233 1.416 377.473 1.944L382.969 14.976H382.273L387.457 1.92C387.681 1.408 388.049 1.152 388.561 1.152ZM413.972 1.128C414.292 1.128 414.588 1.248 414.86 1.488C415.132 1.712 415.268 2.024 415.268 2.424C415.268 2.536 415.244 2.672 415.196 2.832L410.276 17.232C410.196 17.472 410.052 17.656 409.844 17.784C409.636 17.912 409.42 17.984 409.196 18C408.972 18 408.748 17.936 408.524 17.808C408.3 17.68 408.132 17.488 408.02 17.232L404.228 8.352L404.444 8.448L400.7 17.232C400.572 17.488 400.396 17.68 400.172 17.808C399.964 17.936 399.74 18 399.5 18C399.292 17.984 399.084 17.912 398.876 17.784C398.668 17.656 398.524 17.472 398.444 17.232L393.524 2.832C393.476 2.672 393.452 2.536 393.452 2.424C393.452 2.024 393.596 1.712 393.884 1.488C394.172 1.248 394.468 1.128 394.772 1.128C395.028 1.128 395.26 1.2 395.468 1.344C395.692 1.472 395.844 1.664 395.924 1.92L400.076 14.304H399.644L403.292 5.376C403.404 5.136 403.556 4.944 403.748 4.8C403.956 4.656 404.188 4.592 404.444 4.608C404.7 4.592 404.924 4.656 405.116 4.8C405.324 4.944 405.476 5.136 405.572 5.376L409.028 14.04L408.668 14.232L412.796 1.92C412.876 1.664 413.028 1.472 413.252 1.344C413.476 1.2 413.716 1.128 413.972 1.128ZM431.377 1.152C431.697 1.152 431.961 1.272 432.169 1.512C432.393 1.736 432.505 1.984 432.505 2.256C432.505 2.512 432.417 2.76 432.241 3L427.201 9.744L425.833 7.848L430.417 1.728C430.689 1.344 431.009 1.152 431.377 1.152ZM420.433 1.128C420.817 1.128 421.145 1.296 421.417 1.632L432.241 16.176C432.417 16.384 432.505 16.624 432.505 16.896C432.505 17.28 432.369 17.576 432.097 17.784C431.825 17.992 431.553 18.096 431.281 18.096C430.897 18.096 430.577 17.928 430.321 17.592L419.473 3.072C419.297 2.848 419.209 2.608 419.209 2.352C419.209 2 419.337 1.712 419.593 1.488C419.849 1.248 420.129 1.128 420.433 1.128ZM420.265 18.096C419.961 18.096 419.705 17.992 419.497 17.784C419.289 17.56 419.185 17.312 419.185 17.04C419.185 16.768 419.281 16.496 419.473 16.224L424.561 9.336L425.881 11.28L421.249 17.544C420.993 17.912 420.665 18.096 420.265 18.096ZM448.337 1.128C448.641 1.128 448.913 1.248 449.153 1.488C449.409 1.712 449.537 2 449.537 2.352C449.537 2.48 449.513 2.608 449.465 2.736C449.433 2.848 449.377 2.968 449.297 3.096L443.801 10.872L444.185 9.456V16.776C444.185 17.128 444.065 17.424 443.825 17.664C443.585 17.888 443.313 18 443.009 18C442.673 18 442.385 17.888 442.145 17.664C441.921 17.424 441.809 17.128 441.809 16.776V9.648L441.977 10.344L436.673 3.264C436.545 3.088 436.457 2.928 436.409 2.784C436.361 2.624 436.337 2.472 436.337 2.328C436.337 1.976 436.473 1.688 436.745 1.464C437.033 1.24 437.321 1.128 437.609 1.128C437.993 1.128 438.321 1.312 438.593 1.68L443.393 8.256L442.817 8.184L447.329 1.704C447.601 1.32 447.937 1.128 448.337 1.128ZM465.616 1.2C465.92 1.2 466.208 1.312 466.48 1.536C466.768 1.744 466.912 2.024 466.912 2.376C466.912 2.632 466.824 2.888 466.648 3.144L456.88 15.84L456.664 15.696H465.448C465.784 15.696 466.064 15.8 466.288 16.008C466.528 16.216 466.648 16.496 466.648 16.848C466.648 17.168 466.528 17.44 466.288 17.664C466.064 17.888 465.784 18 465.448 18H454.576C454.224 18 453.92 17.88 453.664 17.64C453.424 17.384 453.304 17.104 453.304 16.8C453.304 16.544 453.4 16.296 453.592 16.056L463.36 3.36L463.552 3.504H455.416C455.08 3.504 454.792 3.4 454.552 3.192C454.328 2.968 454.216 2.68 454.216 2.328C454.216 1.992 454.328 1.72 454.552 1.512C454.792 1.304 455.08 1.2 455.416 1.2H465.616Z" fill="#171717"/>
</svg>
