<svg width="176" height="35" viewBox="0 0 176 35" fill="none" xmlns="http://www.w3.org/2000/svg">
<path d="M25.028 28.008C25.532 28.008 26 28.212 26.432 28.62C26.864 29.052 27.08 29.544 27.08 30.096C27.08 30.648 26.828 31.164 26.324 31.644C25.844 32.148 25.22 32.592 24.452 32.976C23.684 33.36 22.88 33.66 22.04 33.876C21.224 34.092 20.48 34.2 19.808 34.2C18.32 34.2 17.132 34.056 16.244 33.768C15.356 33.504 14.624 33.192 14.048 32.832C13.472 32.496 12.932 32.184 12.428 31.896C11.924 31.632 11.312 31.5 10.592 31.5C10.136 31.5 9.764 31.572 9.476 31.716C9.212 31.884 8.912 32.04 8.576 32.184C8.264 32.352 7.82 32.436 7.244 32.436C6.644 32.436 6.14 32.208 5.732 31.752C5.324 31.296 5.12 30.804 5.12 30.276C5.12 29.34 5.54 28.716 6.38 28.404L13.832 25.632L17.072 26.424L10.088 29.016L12.14 27.828C12.98 27.828 13.712 27.948 14.336 28.188C14.984 28.452 15.596 28.74 16.172 29.052C16.748 29.364 17.336 29.64 17.936 29.88C18.56 30.144 19.268 30.276 20.06 30.276C20.708 30.276 21.248 30.168 21.68 29.952C22.136 29.736 22.532 29.496 22.868 29.232C23.276 28.92 23.636 28.632 23.948 28.368C24.284 28.128 24.644 28.008 25.028 28.008ZM24.884 14.4C24.884 16.2 24.584 17.88 23.984 19.44C23.384 21 22.532 22.38 21.428 23.58C20.348 24.756 19.052 25.68 17.54 26.352C16.052 27.024 14.42 27.36 12.644 27.36C10.868 27.36 9.236 27.024 7.748 26.352C6.26 25.68 4.964 24.756 3.86 23.58C2.78 22.38 1.94 21 1.34 19.44C0.74 17.88 0.44 16.2 0.44 14.4C0.44 12.6 0.74 10.92 1.34 9.36C1.94 7.8 2.78 6.432 3.86 5.256C4.964 4.056 6.26 3.12 7.748 2.448C9.236 1.776 10.868 1.44 12.644 1.44C14.42 1.44 16.052 1.776 17.54 2.448C19.052 3.12 20.348 4.056 21.428 5.256C22.532 6.432 23.384 7.8 23.984 9.36C24.584 10.92 24.884 12.6 24.884 14.4ZM20.204 14.4C20.204 12.792 19.88 11.34 19.232 10.044C18.584 8.724 17.696 7.68 16.568 6.912C15.44 6.144 14.132 5.76 12.644 5.76C11.156 5.76 9.848 6.144 8.72 6.912C7.592 7.68 6.704 8.712 6.056 10.008C5.432 11.304 5.12 12.768 5.12 14.4C5.12 16.008 5.432 17.472 6.056 18.792C6.704 20.088 7.592 21.12 8.72 21.888C9.848 22.656 11.156 23.04 12.644 23.04C14.132 23.04 15.44 22.656 16.568 21.888C17.696 21.12 18.584 20.088 19.232 18.792C19.88 17.472 20.204 16.008 20.204 14.4ZM42.8078 7.74C43.4318 7.74 43.9478 7.956 44.3558 8.388C44.7638 8.796 44.9678 9.312 44.9678 9.936V19.08C44.9678 21.624 44.2598 23.64 42.8438 25.128C41.4278 26.616 39.3878 27.36 36.7238 27.36C34.0598 27.36 32.0198 26.616 30.6038 25.128C29.2118 23.64 28.5158 21.624 28.5158 19.08V9.936C28.5158 9.312 28.7198 8.796 29.1278 8.388C29.5358 7.956 30.0518 7.74 30.6758 7.74C31.2998 7.74 31.8158 7.956 32.2238 8.388C32.6318 8.796 32.8358 9.312 32.8358 9.936V19.08C32.8358 20.544 33.1598 21.636 33.8078 22.356C34.4558 23.052 35.4278 23.4 36.7238 23.4C38.0438 23.4 39.0278 23.052 39.6758 22.356C40.3238 21.636 40.6478 20.544 40.6478 19.08V9.936C40.6478 9.312 40.8518 8.796 41.2598 8.388C41.6678 7.956 42.1838 7.74 42.8078 7.74ZM53.7127 24.804C53.7127 25.428 53.5087 25.956 53.1007 26.388C52.6927 26.796 52.1767 27 51.5527 27C50.9287 27 50.4127 26.796 50.0047 26.388C49.5967 25.956 49.3927 25.428 49.3927 24.804V9.936C49.3927 9.312 49.5967 8.796 50.0047 8.388C50.4127 7.956 50.9287 7.74 51.5527 7.74C52.1767 7.74 52.6927 7.956 53.1007 8.388C53.5087 8.796 53.7127 9.312 53.7127 9.936V24.804ZM51.5167 5.4C50.7007 5.4 50.1247 5.268 49.7887 5.004C49.4527 4.74 49.2847 4.272 49.2847 3.6V2.916C49.2847 2.22 49.4647 1.752 49.8247 1.512C50.2087 1.248 50.7847 1.116 51.5527 1.116C52.3927 1.116 52.9807 1.248 53.3167 1.512C53.6527 1.776 53.8207 2.244 53.8207 2.916V3.6C53.8207 4.296 53.6407 4.776 53.2807 5.04C52.9207 5.28 52.3327 5.4 51.5167 5.4ZM66.7205 7.38C68.0885 7.38 69.2765 7.524 70.2845 7.812C71.3165 8.1 72.1085 8.508 72.6605 9.036C73.2365 9.54 73.5245 10.152 73.5245 10.872C73.5245 11.352 73.3805 11.808 73.0925 12.24C72.8045 12.648 72.3845 12.852 71.8325 12.852C71.4485 12.852 71.1245 12.804 70.8605 12.708C70.6205 12.588 70.4045 12.444 70.2125 12.276C70.0205 12.108 69.7925 11.952 69.5285 11.808C69.2885 11.664 68.9165 11.556 68.4125 11.484C67.9325 11.388 67.5725 11.34 67.3325 11.34C66.1085 11.34 65.0645 11.604 64.2005 12.132C63.3605 12.66 62.7125 13.38 62.2565 14.292C61.8005 15.18 61.5725 16.212 61.5725 17.388C61.5725 18.54 61.8005 19.572 62.2565 20.484C62.7365 21.372 63.3845 22.08 64.2005 22.608C65.0405 23.136 66.0005 23.4 67.0805 23.4C67.6805 23.4 68.1965 23.364 68.6285 23.292C69.0605 23.22 69.4205 23.112 69.7085 22.968C70.0445 22.776 70.3445 22.572 70.6085 22.356C70.8725 22.14 71.2685 22.032 71.7965 22.032C72.4205 22.032 72.9005 22.236 73.2365 22.644C73.5725 23.028 73.7405 23.508 73.7405 24.084C73.7405 24.684 73.4045 25.236 72.7325 25.74C72.0605 26.22 71.1725 26.616 70.0685 26.928C68.9885 27.216 67.8125 27.36 66.5405 27.36C64.6445 27.36 63.0005 26.928 61.6085 26.064C60.2165 25.176 59.1365 23.976 58.3685 22.464C57.6245 20.952 57.2525 19.26 57.2525 17.388C57.2525 15.42 57.6485 13.692 58.4405 12.204C59.2565 10.692 60.3725 9.516 61.7885 8.676C63.2285 7.812 64.8725 7.38 66.7205 7.38ZM79.3756 27C78.7516 27 78.2356 26.796 77.8276 26.388C77.4196 25.956 77.2156 25.428 77.2156 24.804V2.556C77.2156 1.932 77.4196 1.416 77.8276 1.008C78.2356 0.575999 78.7516 0.36 79.3756 0.36C79.9996 0.36 80.5156 0.575999 80.9236 1.008C81.3316 1.416 81.5356 1.932 81.5356 2.556V24.804C81.5356 25.428 81.3316 25.956 80.9236 26.388C80.5156 26.796 79.9996 27 79.3756 27ZM90.8236 7.74C91.3756 7.74 91.8556 7.968 92.2636 8.424C92.6716 8.88 92.8756 9.324 92.8756 9.756C92.8756 10.332 92.5876 10.872 92.0116 11.376L81.1756 21.348L80.9956 16.38L89.2396 8.424C89.6956 7.968 90.2236 7.74 90.8236 7.74ZM91.3636 26.964C90.7396 26.964 90.2116 26.724 89.7796 26.244L83.1196 19.188L86.3956 16.164L92.8756 23.22C93.3316 23.7 93.5596 24.24 93.5596 24.84C93.5596 25.464 93.3076 25.98 92.8036 26.388C92.3236 26.772 91.8436 26.964 91.3636 26.964ZM96.0599 24.012C95.8199 23.676 95.7119 23.244 95.7359 22.716C95.7599 22.188 96.0719 21.732 96.6719 21.348C97.0559 21.108 97.4639 21.012 97.8959 21.06C98.3279 21.084 98.7479 21.3 99.1559 21.708C99.8519 22.404 100.584 22.944 101.352 23.328C102.12 23.712 103.08 23.904 104.232 23.904C104.592 23.88 104.988 23.832 105.42 23.76C105.852 23.664 106.224 23.472 106.536 23.184C106.872 22.872 107.04 22.404 107.04 21.78C107.04 21.252 106.86 20.832 106.5 20.52C106.14 20.208 105.66 19.944 105.06 19.728C104.484 19.512 103.836 19.308 103.116 19.116C102.372 18.9 101.604 18.66 100.812 18.396C100.044 18.132 99.3359 17.796 98.6879 17.388C98.0399 16.956 97.5119 16.392 97.1039 15.696C96.6959 15 96.4919 14.124 96.4919 13.068C96.4919 11.868 96.8279 10.848 97.4999 10.008C98.1719 9.168 99.0359 8.52 100.092 8.064C101.172 7.608 102.3 7.38 103.476 7.38C104.22 7.38 105 7.476 105.816 7.668C106.632 7.836 107.412 8.124 108.156 8.532C108.9 8.916 109.524 9.432 110.028 10.08C110.292 10.44 110.448 10.872 110.496 11.376C110.544 11.88 110.316 12.336 109.812 12.744C109.452 13.032 109.032 13.164 108.552 13.14C108.072 13.092 107.676 12.924 107.364 12.636C106.956 12.108 106.404 11.688 105.708 11.376C105.036 11.064 104.256 10.908 103.368 10.908C103.008 10.908 102.612 10.956 102.18 11.052C101.772 11.124 101.412 11.304 101.1 11.592C100.788 11.856 100.632 12.288 100.632 12.888C100.632 13.44 100.812 13.884 101.172 14.22C101.532 14.532 102.012 14.796 102.612 15.012C103.236 15.204 103.896 15.396 104.592 15.588C105.312 15.78 106.044 16.008 106.788 16.272C107.532 16.536 108.216 16.884 108.84 17.316C109.464 17.748 109.968 18.312 110.352 19.008C110.736 19.68 110.928 20.544 110.928 21.6C110.928 22.824 110.568 23.868 109.848 24.732C109.128 25.596 108.228 26.256 107.148 26.712C106.068 27.144 104.964 27.36 103.836 27.36C102.42 27.36 101.004 27.12 99.5879 26.64C98.1719 26.136 96.9959 25.26 96.0599 24.012ZM123.615 27.36C121.575 27.36 119.799 26.94 118.287 26.1C116.799 25.236 115.647 24.072 114.831 22.608C114.039 21.144 113.643 19.488 113.643 17.64C113.643 15.48 114.075 13.644 114.939 12.132C115.827 10.596 116.979 9.42 118.395 8.604C119.811 7.788 121.311 7.38 122.895 7.38C124.119 7.38 125.271 7.632 126.351 8.136C127.455 8.64 128.427 9.336 129.267 10.224C130.107 11.088 130.767 12.096 131.247 13.248C131.751 14.4 132.003 15.624 132.003 16.92C131.979 17.496 131.751 17.964 131.319 18.324C130.887 18.684 130.383 18.864 129.807 18.864H116.055L114.975 15.264H128.187L127.395 15.984V15.012C127.347 14.316 127.095 13.692 126.639 13.14C126.207 12.588 125.655 12.156 124.983 11.844C124.335 11.508 123.639 11.34 122.895 11.34C122.175 11.34 121.503 11.436 120.879 11.628C120.255 11.82 119.715 12.144 119.259 12.6C118.803 13.056 118.443 13.668 118.179 14.436C117.915 15.204 117.783 16.176 117.783 17.352C117.783 18.648 118.047 19.752 118.575 20.664C119.127 21.552 119.823 22.236 120.663 22.716C121.527 23.172 122.439 23.4 123.399 23.4C124.287 23.4 124.995 23.328 125.523 23.184C126.051 23.04 126.471 22.872 126.783 22.68C127.119 22.464 127.419 22.284 127.683 22.14C128.115 21.924 128.523 21.816 128.907 21.816C129.435 21.816 129.867 21.996 130.203 22.356C130.563 22.716 130.743 23.136 130.743 23.616C130.743 24.264 130.407 24.852 129.735 25.38C129.111 25.908 128.235 26.376 127.107 26.784C125.979 27.168 124.815 27.36 123.615 27.36ZM146.074 7.38C147.85 7.38 149.194 7.752 150.106 8.496C151.042 9.24 151.678 10.236 152.014 11.484C152.374 12.708 152.554 14.076 152.554 15.588V24.804C152.554 25.428 152.35 25.956 151.941 26.388C151.534 26.796 151.018 27 150.394 27C149.77 27 149.254 26.796 148.846 26.388C148.438 25.956 148.234 25.428 148.234 24.804V15.588C148.234 14.796 148.126 14.088 147.91 13.464C147.718 12.816 147.358 12.3 146.83 11.916C146.302 11.532 145.546 11.34 144.562 11.34C143.602 11.34 142.786 11.532 142.114 11.916C141.466 12.3 140.962 12.816 140.602 13.464C140.266 14.088 140.098 14.796 140.098 15.588V24.804C140.098 25.428 139.894 25.956 139.486 26.388C139.078 26.796 138.562 27 137.938 27C137.314 27 136.798 26.796 136.39 26.388C135.982 25.956 135.778 25.428 135.778 24.804V9.936C135.778 9.312 135.982 8.796 136.39 8.388C136.798 7.956 137.314 7.74 137.938 7.74C138.562 7.74 139.078 7.956 139.486 8.388C139.894 8.796 140.098 9.312 140.098 9.936V11.484L139.558 11.376C139.774 10.968 140.086 10.536 140.494 10.08C140.902 9.6 141.382 9.156 141.934 8.748C142.486 8.34 143.11 8.016 143.806 7.776C144.502 7.512 145.258 7.38 146.074 7.38ZM172.991 0.36C173.615 0.36 174.131 0.563999 174.539 0.971998C174.947 1.38 175.151 1.908 175.151 2.556V24.804C175.151 25.428 174.947 25.956 174.539 26.388C174.131 26.796 173.615 27 172.991 27C172.367 27 171.851 26.796 171.443 26.388C171.035 25.956 170.831 25.428 170.831 24.804V23.04L171.623 23.364C171.623 23.676 171.455 24.06 171.119 24.516C170.783 24.948 170.327 25.38 169.751 25.812C169.175 26.244 168.491 26.616 167.699 26.928C166.931 27.216 166.091 27.36 165.179 27.36C163.523 27.36 162.023 26.94 160.679 26.1C159.335 25.236 158.267 24.06 157.475 22.572C156.707 21.06 156.323 19.332 156.323 17.388C156.323 15.42 156.707 13.692 157.475 12.204C158.267 10.692 159.323 9.516 160.643 8.676C161.963 7.812 163.427 7.38 165.035 7.38C166.067 7.38 167.015 7.536 167.879 7.848C168.743 8.16 169.487 8.556 170.111 9.036C170.759 9.516 171.251 10.008 171.587 10.512C171.947 10.992 172.127 11.4 172.127 11.736L170.831 12.204V2.556C170.831 1.932 171.035 1.416 171.443 1.008C171.851 0.575999 172.367 0.36 172.991 0.36ZM165.719 23.4C166.775 23.4 167.699 23.136 168.491 22.608C169.283 22.08 169.895 21.36 170.327 20.448C170.783 19.536 171.011 18.516 171.011 17.388C171.011 16.236 170.783 15.204 170.327 14.292C169.895 13.38 169.283 12.66 168.491 12.132C167.699 11.604 166.775 11.34 165.719 11.34C164.687 11.34 163.775 11.604 162.983 12.132C162.191 12.66 161.567 13.38 161.111 14.292C160.679 15.204 160.463 16.236 160.463 17.388C160.463 18.516 160.679 19.536 161.111 20.448C161.567 21.36 162.191 22.08 162.983 22.608C163.775 23.136 164.687 23.4 165.719 23.4Z" fill="#171717"/>
</svg>
