<svg width="171" height="66" viewBox="0 0 171 66" fill="none" xmlns="http://www.w3.org/2000/svg">
<rect width="171" height="66" rx="33" fill="#E0E0FF"/>
<path d="M44.9783 42C44.7383 42 44.5383 41.928 44.3783 41.784C44.2343 41.64 44.1623 41.472 44.1623 41.28V25.92C44.1623 25.728 44.2343 25.56 44.3783 25.416C44.5223 25.272 44.6903 25.2 44.8823 25.2H51.3623C52.2743 25.2 53.0903 25.4 53.8103 25.8C54.5303 26.184 55.0903 26.72 55.4903 27.408C55.9063 28.096 56.1143 28.872 56.1143 29.736C56.1143 30.44 55.9863 31.088 55.7303 31.68C55.4743 32.272 55.1143 32.776 54.6503 33.192C54.1863 33.592 53.6663 33.888 53.0903 34.08L52.2503 33.816C52.8423 33.864 53.3943 34.056 53.9062 34.392C54.4183 34.712 54.8263 35.16 55.1302 35.736C55.4503 36.296 55.6183 36.976 55.6343 37.776C55.6503 38.464 55.6823 39 55.7303 39.384C55.7943 39.768 55.8823 40.056 55.9943 40.248C56.1063 40.44 56.2503 40.592 56.4263 40.704C56.5863 40.8 56.6903 40.936 56.7383 41.112C56.8023 41.288 56.7863 41.456 56.6903 41.616C56.6263 41.744 56.5303 41.84 56.4023 41.904C56.2903 41.952 56.1703 41.976 56.0423 41.976C55.9143 41.976 55.7863 41.944 55.6583 41.88C55.4343 41.752 55.2023 41.552 54.9623 41.28C54.7383 41.008 54.5463 40.608 54.3863 40.08C54.2423 39.552 54.1703 38.816 54.1703 37.872C54.1703 37.248 54.0663 36.736 53.8583 36.336C53.6663 35.936 53.4103 35.632 53.0903 35.424C52.7863 35.2 52.4423 35.048 52.0583 34.968C51.6903 34.872 51.3383 34.824 51.0023 34.824H45.4103L45.6743 34.488V41.28C45.6743 41.472 45.6103 41.64 45.4823 41.784C45.3543 41.928 45.1863 42 44.9783 42ZM45.4103 33.504H51.4343C51.9783 33.456 52.4903 33.28 52.9703 32.976C53.4503 32.656 53.8343 32.224 54.1223 31.68C54.4262 31.136 54.5782 30.504 54.5782 29.784C54.5782 28.872 54.2663 28.12 53.6423 27.528C53.0343 26.92 52.2343 26.616 51.2423 26.616H45.5063L45.6743 26.28V33.84L45.4103 33.504ZM65.3072 42.24C64.0752 42.24 62.9872 41.976 62.0432 41.448C61.0992 40.92 60.3632 40.184 59.8352 39.24C59.3072 38.296 59.0432 37.192 59.0432 35.928C59.0432 34.568 59.3072 33.408 59.8352 32.448C60.3792 31.488 61.0752 30.752 61.9232 30.24C62.7872 29.712 63.6992 29.448 64.6592 29.448C65.3632 29.448 66.0432 29.576 66.6992 29.832C67.3712 30.072 67.9632 30.44 68.4752 30.936C69.0032 31.416 69.4192 32.008 69.7232 32.712C70.0432 33.416 70.2192 34.232 70.2512 35.16C70.2352 35.352 70.1552 35.52 70.0112 35.664C69.8672 35.792 69.6992 35.856 69.5072 35.856H59.8832L59.5952 34.56H69.0512L68.7392 34.848V34.368C68.6752 33.616 68.4352 32.976 68.0192 32.448C67.6032 31.92 67.0992 31.52 66.5072 31.248C65.9152 30.976 65.2992 30.84 64.6592 30.84C64.1792 30.84 63.6832 30.936 63.1712 31.128C62.6752 31.32 62.2192 31.624 61.8032 32.04C61.4032 32.44 61.0752 32.96 60.8192 33.6C60.5632 34.224 60.4352 34.968 60.4352 35.832C60.4352 36.776 60.6272 37.632 61.0112 38.4C61.3952 39.168 61.9472 39.776 62.6672 40.224C63.4032 40.672 64.2752 40.896 65.2832 40.896C65.8432 40.896 66.3472 40.816 66.7952 40.656C67.2432 40.496 67.6352 40.288 67.9712 40.032C68.3072 39.76 68.5872 39.48 68.8112 39.192C68.9872 39.048 69.1632 38.976 69.3392 38.976C69.4992 38.976 69.6352 39.04 69.7472 39.168C69.8752 39.296 69.9392 39.44 69.9392 39.6C69.9392 39.792 69.8592 39.96 69.6992 40.104C69.2192 40.68 68.5952 41.184 67.8272 41.616C67.0592 42.032 66.2192 42.24 65.3072 42.24ZM78.3283 29.448C79.0483 29.448 79.7123 29.576 80.3203 29.832C80.9283 30.072 81.4563 30.392 81.9043 30.792C82.3683 31.176 82.7283 31.592 82.9843 32.04C83.2403 32.472 83.3683 32.888 83.3683 33.288L82.9603 32.712V30.48C82.9603 30.272 83.0243 30.096 83.1523 29.952C83.2963 29.808 83.4723 29.736 83.6803 29.736C83.9043 29.736 84.0803 29.808 84.2083 29.952C84.3363 30.096 84.4003 30.272 84.4003 30.48V40.872C84.4003 42.152 84.1363 43.232 83.6083 44.112C83.0803 44.992 82.3603 45.656 81.4483 46.104C80.5523 46.568 79.5283 46.8 78.3763 46.8C77.8163 46.8 77.2243 46.728 76.6003 46.584C75.9923 46.44 75.4643 46.256 75.0163 46.032C74.5843 45.808 74.3443 45.576 74.2963 45.336C74.1683 45.192 74.1043 45.048 74.1043 44.904C74.1203 44.776 74.1923 44.664 74.3203 44.568C74.4803 44.456 74.6483 44.44 74.8243 44.52C75.0003 44.616 75.2643 44.736 75.6163 44.88C75.7763 44.928 75.9923 45 76.2643 45.096C76.5363 45.192 76.8563 45.272 77.2243 45.336C77.6083 45.416 78.0083 45.456 78.4243 45.456C79.8643 45.456 80.9763 45.04 81.7603 44.208C82.5603 43.392 82.9603 42.312 82.9603 40.968V38.664L83.2243 38.736C83.0803 39.312 82.8403 39.816 82.5043 40.248C82.1843 40.68 81.8003 41.048 81.3523 41.352C80.9043 41.64 80.4163 41.856 79.8883 42C79.3763 42.16 78.8643 42.24 78.3523 42.24C77.2483 42.24 76.2563 41.96 75.3763 41.4C74.4963 40.84 73.7923 40.08 73.2643 39.12C72.7523 38.16 72.4963 37.064 72.4963 35.832C72.4963 34.616 72.7523 33.528 73.2643 32.568C73.7923 31.592 74.4883 30.832 75.3523 30.288C76.2323 29.728 77.2243 29.448 78.3283 29.448ZM78.4963 30.792C77.6163 30.792 76.8243 31.016 76.1203 31.464C75.4323 31.896 74.8883 32.496 74.4883 33.264C74.1043 34.016 73.9123 34.872 73.9123 35.832C73.9123 36.792 74.1043 37.656 74.4883 38.424C74.8883 39.192 75.4323 39.8 76.1203 40.248C76.8243 40.68 77.6163 40.896 78.4963 40.896C79.3763 40.896 80.1603 40.68 80.8483 40.248C81.5363 39.816 82.0803 39.224 82.4803 38.472C82.8803 37.704 83.0803 36.824 83.0803 35.832C83.0803 34.84 82.8803 33.968 82.4803 33.216C82.0803 32.448 81.5363 31.856 80.8483 31.44C80.1603 31.008 79.3763 30.792 78.4963 30.792ZM97.1734 29.808C97.3814 29.808 97.5494 29.88 97.6774 30.024C97.8214 30.168 97.8934 30.336 97.8934 30.528V37.296C97.8934 38.88 97.4454 40.088 96.5494 40.92C95.6534 41.752 94.4454 42.168 92.9254 42.168C91.4214 42.168 90.2214 41.752 89.3254 40.92C88.4454 40.088 88.0054 38.88 88.0054 37.296V30.528C88.0054 30.336 88.0694 30.168 88.1974 30.024C88.3414 29.88 88.5174 29.808 88.7254 29.808C88.9334 29.808 89.1014 29.88 89.2294 30.024C89.3734 30.168 89.4454 30.336 89.4454 30.528V37.296C89.4454 38.448 89.7494 39.328 90.3574 39.936C90.9814 40.528 91.8374 40.824 92.9254 40.824C94.0294 40.824 94.8934 40.528 95.5174 39.936C96.1414 39.328 96.4534 38.448 96.4534 37.296V30.528C96.4534 30.336 96.5174 30.168 96.6454 30.024C96.7734 29.88 96.9494 29.808 97.1734 29.808ZM103.253 41.28C103.253 41.472 103.181 41.64 103.037 41.784C102.893 41.928 102.725 42 102.533 42C102.325 42 102.149 41.928 102.005 41.784C101.877 41.64 101.813 41.472 101.813 41.28V24.96C101.813 24.768 101.885 24.6 102.029 24.456C102.173 24.312 102.341 24.24 102.533 24.24C102.741 24.24 102.909 24.312 103.037 24.456C103.181 24.6 103.253 24.768 103.253 24.96V41.28ZM117.257 29.736C117.465 29.736 117.633 29.808 117.761 29.952C117.905 30.096 117.977 30.272 117.977 30.48V41.28C117.977 41.472 117.905 41.64 117.761 41.784C117.617 41.928 117.449 42 117.257 42C117.049 42 116.873 41.928 116.729 41.784C116.601 41.64 116.537 41.472 116.537 41.28V38.424L116.945 38.232C116.945 38.68 116.817 39.136 116.561 39.6C116.321 40.064 115.985 40.496 115.553 40.896C115.121 41.296 114.609 41.624 114.017 41.88C113.441 42.12 112.817 42.24 112.145 42.24C111.057 42.24 110.081 41.96 109.217 41.4C108.369 40.84 107.697 40.072 107.201 39.096C106.721 38.12 106.481 37.024 106.481 35.808C106.481 34.56 106.729 33.464 107.225 32.52C107.721 31.56 108.393 30.808 109.241 30.264C110.089 29.72 111.049 29.448 112.121 29.448C112.809 29.448 113.449 29.568 114.041 29.808C114.649 30.048 115.177 30.376 115.625 30.792C116.073 31.208 116.417 31.688 116.657 32.232C116.913 32.76 117.041 33.312 117.041 33.888L116.537 33.528V30.48C116.537 30.272 116.601 30.096 116.729 29.952C116.873 29.808 117.049 29.736 117.257 29.736ZM112.265 40.896C113.113 40.896 113.865 40.68 114.521 40.248C115.177 39.8 115.689 39.192 116.057 38.424C116.441 37.64 116.633 36.768 116.633 35.808C116.633 34.864 116.441 34.016 116.057 33.264C115.689 32.512 115.177 31.912 114.521 31.464C113.865 31.016 113.113 30.792 112.265 30.792C111.433 30.792 110.681 31.008 110.009 31.44C109.353 31.872 108.833 32.464 108.449 33.216C108.081 33.968 107.897 34.832 107.897 35.808C107.897 36.768 108.081 37.64 108.449 38.424C108.833 39.192 109.353 39.8 110.009 40.248C110.665 40.68 111.417 40.896 112.265 40.896ZM122.475 42C122.251 42 122.075 41.928 121.947 41.784C121.819 41.64 121.755 41.472 121.755 41.28V30.528C121.755 30.336 121.819 30.168 121.947 30.024C122.091 29.88 122.267 29.808 122.475 29.808C122.683 29.808 122.851 29.88 122.979 30.024C123.123 30.168 123.195 30.336 123.195 30.528V34.128L122.835 34.2C122.883 33.64 123.019 33.088 123.243 32.544C123.483 31.984 123.803 31.472 124.203 31.008C124.603 30.544 125.075 30.168 125.619 29.88C126.179 29.592 126.803 29.448 127.491 29.448C127.779 29.448 128.059 29.512 128.331 29.64C128.603 29.752 128.739 29.944 128.739 30.216C128.739 30.456 128.675 30.64 128.547 30.768C128.419 30.896 128.267 30.96 128.091 30.96C127.947 30.96 127.787 30.92 127.611 30.84C127.451 30.76 127.235 30.72 126.963 30.72C126.515 30.72 126.067 30.856 125.619 31.128C125.171 31.384 124.763 31.736 124.395 32.184C124.027 32.632 123.731 33.136 123.507 33.696C123.299 34.24 123.195 34.792 123.195 35.352V41.28C123.195 41.472 123.123 41.64 122.979 41.784C122.835 41.928 122.667 42 122.475 42Z" fill="#8584FF"/>
</svg>
