<svg width="297" height="49" viewBox="0 0 297 49" fill="none" xmlns="http://www.w3.org/2000/svg">
<path fill-rule="evenodd" clip-rule="evenodd" d="M24 0C29.0089 0 33.6594 1.53443 37.5071 4.15888L34.3955 6.29496C31.3466 4.50092 27.7934 3.47197 24 3.47197C12.6627 3.47197 3.47197 12.6627 3.47197 24C3.47197 35.3373 12.6627 44.528 24 44.528C27.6872 44.528 31.1474 43.5559 34.1382 41.8539L37.2677 44.0023C33.4672 46.5283 28.9055 48 24 48C10.7452 48 0 37.2548 0 24C0 10.7452 10.7452 0 24 0ZM39.0624 42.6859C44.5134 38.2865 48 31.5504 48 24C48 16.5267 44.5842 9.85123 39.2288 5.44958L36.1228 7.43211C40.8143 10.8707 43.9912 16.254 44.4662 22.3947H12.6815L9.97708 24.1209L12.7121 25.8666H44.4443C43.8937 31.9754 40.667 37.3124 35.9455 40.6964L39.0624 42.6859ZM44.5274 24.1575C44.5278 24.105 44.528 24.0525 44.528 24C44.528 23.9748 44.528 23.9496 44.5279 23.9244C44.5278 23.8971 44.5276 23.8698 44.5274 23.8425V24.1575Z" fill="#171717"/>
<path d="M62.78 23.8C62.78 22.9333 62.9267 22.0867 63.22 21.26C63.5267 20.42 63.9667 19.66 64.54 18.98C65.1267 18.2867 65.84 17.74 66.68 17.34C67.52 16.9267 68.4733 16.72 69.54 16.72C70.8067 16.72 71.8933 17.0133 72.8 17.6C73.7067 18.1733 74.38 18.9133 74.82 19.82L73.4 20.74C73.12 20.14 72.76 19.6667 72.32 19.32C71.8933 18.96 71.4267 18.7067 70.92 18.56C70.4267 18.4133 69.94 18.34 69.46 18.34C68.6733 18.34 67.9733 18.5 67.36 18.82C66.76 19.14 66.2533 19.5667 65.84 20.1C65.4267 20.6333 65.1133 21.2333 64.9 21.9C64.7 22.5533 64.6 23.2133 64.6 23.88C64.6 24.6133 64.72 25.32 64.96 26C65.2133 26.68 65.56 27.28 66 27.8C66.44 28.32 66.96 28.7333 67.56 29.04C68.16 29.3467 68.8133 29.5 69.52 29.5C70.0133 29.5 70.52 29.4133 71.04 29.24C71.56 29.0667 72.0467 28.8 72.5 28.44C72.9533 28.0667 73.3133 27.5867 73.58 27L75.08 27.82C74.7867 28.5267 74.3333 29.1267 73.72 29.62C73.1067 30.1133 72.42 30.4867 71.66 30.74C70.9133 30.9933 70.1733 31.12 69.44 31.12C68.4667 31.12 67.5733 30.9133 66.76 30.5C65.9467 30.0733 65.24 29.5133 64.64 28.82C64.0533 28.1133 63.5933 27.3267 63.26 26.46C62.94 25.58 62.78 24.6933 62.78 23.8ZM91.1528 16.8V31H89.3528V24.54H81.5328V31H79.7328V16.8H81.5328V22.94H89.3528V16.8H91.1528ZM106.597 29.4V31H96.957V16.8H106.417V18.4H98.757V23H105.417V24.5H98.757V29.4H106.597ZM121.706 18.4H116.806V31H115.006V18.4H110.106V16.8H121.706V18.4ZM129.124 16.8H130.644L136.444 31H134.524L132.844 26.84H126.884L125.224 31H123.304L129.124 16.8ZM132.444 25.44L129.884 18.88L127.244 25.44H132.444ZM142.539 20.12V31H140.739V16.8H142.259L150.939 27.9V16.82H152.739V31H151.099L142.539 20.12ZM175.623 18.4H170.723V31H168.923V18.4H164.023V16.8H175.623V18.4ZM191.488 16.8V31H189.688V24.54H181.868V31H180.068V16.8H181.868V22.94H189.688V16.8H191.488ZM201.612 16.8H203.132L208.932 31H207.012L205.332 26.84H199.372L197.712 31H195.792L201.612 16.8ZM204.932 25.44L202.372 18.88L199.732 25.44H204.932ZM213.227 31V16.82H215.027V24.66L222.347 16.8H224.287L218.587 23.06L224.607 31H222.587L217.447 24.14L215.027 26.66V31H213.227ZM234.534 31.1C233.401 31.1 232.448 30.9067 231.674 30.52C230.901 30.12 230.281 29.5867 229.814 28.92C229.348 28.24 229.008 27.4733 228.794 26.62C228.581 25.7667 228.474 24.8867 228.474 23.98V16.8H230.274V23.98C230.274 24.6733 230.341 25.3533 230.474 26.02C230.621 26.6733 230.854 27.26 231.174 27.78C231.494 28.3 231.928 28.7133 232.474 29.02C233.021 29.3267 233.701 29.48 234.514 29.48C235.341 29.48 236.028 29.3267 236.574 29.02C237.121 28.7 237.554 28.28 237.874 27.76C238.194 27.2267 238.421 26.6333 238.554 25.98C238.701 25.3267 238.774 24.66 238.774 23.98V16.8H240.574V23.98C240.574 24.94 240.461 25.8533 240.234 26.72C240.021 27.5733 239.674 28.3267 239.194 28.98C238.714 29.6333 238.088 30.1533 237.314 30.54C236.554 30.9133 235.628 31.1 234.534 31.1ZM246.172 31V16.8H252.252C252.879 16.8 253.452 16.9333 253.972 17.2C254.492 17.4533 254.945 17.8 255.332 18.24C255.719 18.6667 256.019 19.1533 256.232 19.7C256.445 20.2333 256.552 20.78 256.552 21.34C256.552 21.9933 256.425 22.6133 256.172 23.2C255.932 23.7867 255.585 24.2867 255.132 24.7C254.692 25.1133 254.172 25.4 253.572 25.56L257.012 31H254.972L251.732 25.9H247.972V31H246.172ZM247.972 24.3H252.272C252.765 24.3 253.192 24.1667 253.552 23.9C253.925 23.62 254.212 23.2533 254.412 22.8C254.625 22.3467 254.732 21.86 254.732 21.34C254.732 20.8067 254.612 20.32 254.372 19.88C254.132 19.4267 253.819 19.0667 253.432 18.8C253.045 18.5333 252.619 18.4 252.152 18.4H247.972V24.3Z" fill="#171717"/>
</svg>
