<svg width="24" height="24" viewBox="0 0 24 24" fill="none" xmlns="http://www.w3.org/2000/svg">
<g clip-path="url(#clip0_553_33704)">
<g clip-path="url(#clip1_553_33704)">
<g clip-path="url(#clip2_553_33704)">
<path d="M18.0766 11.4949C18.262 11.773 18.4474 12.0511 18.5401 12.5146H15.5737C15.5737 12.4219 15.5737 12.2365 15.6664 12.0511C15.7591 11.8657 15.7591 11.773 15.9445 11.5876C16.0372 11.4022 16.2226 11.3095 16.408 11.2168C16.5934 11.1241 16.8715 11.0314 17.1496 11.0314C17.5204 11.1241 17.8912 11.2168 18.0766 11.4949ZM9.54818 10.846C9.73358 10.6606 9.91898 10.3825 9.91898 10.0117C9.91898 9.82628 9.91898 9.64088 9.82628 9.45547C9.73358 9.36277 9.64088 9.17737 9.54818 9.17737C9.45547 9.08467 9.27007 9.08467 9.08467 8.99197H6.67445V11.1241H8.71387C8.99197 11.1241 9.27007 11.0314 9.54818 10.846ZM8.80657 12.4219H6.67445V14.9248H8.80657C8.99197 14.9248 9.17737 14.9248 9.36277 14.8321C9.54818 14.8321 9.73358 14.7394 9.82628 14.6467C9.91898 14.554 10.1044 14.4613 10.1971 14.2759C10.2898 14.0905 10.2898 13.9051 10.2898 13.7197C10.2898 13.2562 10.1971 12.8854 9.91898 12.7C9.64088 12.5146 9.27007 12.4219 8.80657 12.4219ZM24.1022 4.54234V19.5599C24.1022 22.0628 22.0628 24.1022 19.5599 24.1022H4.54234C2.03942 24.1022 0 22.0628 0 19.5599V4.54234C0 2.03942 2.03942 0 4.54234 0H19.5599C22.0628 0 24.1022 2.03942 24.1022 4.54234ZM15.2029 8.89927H18.9109V7.97226H15.2029V8.89927ZM12.2365 13.9051C12.2365 13.3489 12.1438 12.8854 11.8657 12.4219C11.5876 12.0511 11.2168 11.773 10.6606 11.5876C11.0314 11.4022 11.4022 11.1241 11.5876 10.846C11.773 10.5679 11.8657 10.1971 11.8657 9.73358C11.8657 9.27007 11.773 8.99197 11.6803 8.62117C11.4949 8.34307 11.3095 8.06496 11.1241 7.97226C10.846 7.78686 10.5679 7.69416 10.1971 7.60146C9.73358 7.41606 9.36277 7.41606 8.89927 7.41606H4.63504V16.5007H9.08467C9.45547 16.5007 9.91898 16.408 10.2898 16.3153C10.6606 16.2226 11.0314 16.0372 11.3095 15.8518C11.5876 15.6664 11.8657 15.3883 12.0511 15.0175C12.1438 14.7394 12.2365 14.3686 12.2365 13.9051ZM15.5737 13.627H20.3015C20.3015 13.0708 20.3015 12.6073 20.2088 12.1438C20.1161 11.6803 19.9307 11.2168 19.6526 10.9387C19.3745 10.5679 19.0037 10.2898 18.6328 10.1044C18.1693 9.91898 17.7058 9.73358 17.1496 9.73358C16.6861 9.73358 16.2226 9.82628 15.7591 10.0117C15.3883 10.1971 15.0175 10.4752 14.6467 10.7533C14.3686 11.0314 14.0905 11.4022 13.9978 11.8657C13.8124 12.3292 13.7197 12.7927 13.7197 13.2562C13.7197 13.7197 13.8124 14.2759 13.9978 14.6467C14.1832 15.1102 14.3686 15.481 14.6467 15.7591C14.9248 16.0372 15.2956 16.3153 15.6664 16.5007C16.1299 16.6861 16.5934 16.7788 17.0569 16.7788C17.7985 16.7788 18.4474 16.5934 19.0037 16.2226C19.5599 15.8518 19.9307 15.2956 20.2088 14.554H18.6328C18.5401 14.7394 18.4474 14.9248 18.1693 15.1102C17.8912 15.2956 17.6131 15.3883 17.2423 15.3883C16.7788 15.3883 16.3153 15.2956 16.0372 15.0175C15.7591 14.6467 15.5737 14.1832 15.5737 13.627Z" fill="#171717"/>
</g>
</g>
</g>
<defs>
<clipPath id="clip0_553_33704">
<rect width="24" height="24" rx="5.56204" fill="white"/>
</clipPath>
<clipPath id="clip1_553_33704">
<rect width="27.8102" height="24.1022" fill="white" transform="translate(-1.85352)"/>
</clipPath>
<clipPath id="clip2_553_33704">
<rect width="24.1022" height="24.1022" fill="white"/>
</clipPath>
</defs>
</svg>
