<svg width="11" height="11" viewBox="0 0 11 11" fill="none" xmlns="http://www.w3.org/2000/svg">
<g clip-path="url(#clip0_1147_21050)">
<g clip-path="url(#clip1_1147_21050)">
<g clip-path="url(#clip2_1147_21050)">
<path d="M8.22366 4.98233C8.29835 5.09437 8.37304 5.2064 8.41039 5.39313H7.21535C7.21535 5.35578 7.21535 5.28109 7.2527 5.2064C7.29004 5.13171 7.29004 5.09437 7.36473 5.01968C7.40208 4.94499 7.47677 4.90764 7.55146 4.8703C7.62615 4.83295 7.73818 4.79561 7.85021 4.79561C7.99959 4.83295 8.14897 4.8703 8.22366 4.98233ZM4.78793 4.72092C4.86262 4.64623 4.93731 4.53419 4.93731 4.38481C4.93731 4.31012 4.93731 4.23543 4.89997 4.16074C4.86262 4.1234 4.82528 4.04871 4.78793 4.04871C4.75059 4.01136 4.6759 4.01136 4.60121 3.97402H3.63024V4.83295H4.45183C4.56386 4.83295 4.6759 4.79561 4.78793 4.72092ZM4.48917 5.35578H3.63024V6.36409H4.48917C4.56386 6.36409 4.63855 6.36409 4.71324 6.32675C4.78793 6.32675 4.86262 6.2894 4.89997 6.25206C4.93731 6.21471 5.012 6.17737 5.04935 6.10268C5.08669 6.02799 5.08669 5.9533 5.08669 5.87861C5.08669 5.69188 5.04935 5.54251 4.93731 5.46782C4.82528 5.39313 4.6759 5.35578 4.48917 5.35578ZM10.6511 2.18146V8.23134C10.6511 9.23965 9.8295 10.0612 8.82118 10.0612H2.77131C1.76299 10.0612 0.941406 9.23965 0.941406 8.23134V2.18146C0.941406 1.17315 1.76299 0.351562 2.77131 0.351562H8.82118C9.8295 0.351562 10.6511 1.17315 10.6511 2.18146ZM7.06597 3.93667H8.55977V3.56323H7.06597V3.93667ZM5.87093 5.9533C5.87093 5.72923 5.83359 5.54251 5.72156 5.35578C5.60952 5.2064 5.46014 5.09437 5.23607 5.01968C5.38545 4.94499 5.53483 4.83295 5.60952 4.72092C5.68421 4.60888 5.72156 4.4595 5.72156 4.27278C5.72156 4.08605 5.68421 3.97402 5.64687 3.82464C5.57218 3.7126 5.49749 3.60057 5.4228 3.56323C5.31076 3.48854 5.19873 3.45119 5.04935 3.41385C4.86262 3.33916 4.71324 3.33916 4.52652 3.33916H2.80865V6.99896H4.60121C4.75059 6.99896 4.93731 6.96161 5.08669 6.92427C5.23607 6.88692 5.38545 6.81223 5.49749 6.73754C5.60952 6.66285 5.72155 6.55082 5.79624 6.40144C5.83359 6.2894 5.87093 6.14002 5.87093 5.9533ZM7.21535 5.84126H9.11994C9.11994 5.6172 9.11994 5.43047 9.0826 5.24375C9.04525 5.05702 8.97056 4.8703 8.85853 4.75826C8.74649 4.60888 8.59711 4.49685 8.44773 4.42216C8.26101 4.34747 8.07428 4.27278 7.85021 4.27278C7.66349 4.27278 7.47677 4.31012 7.29004 4.38481C7.14066 4.4595 6.99128 4.57154 6.8419 4.68357C6.72987 4.79561 6.61783 4.94499 6.58049 5.13171C6.5058 5.31844 6.46845 5.50516 6.46845 5.69188C6.46845 5.87861 6.5058 6.10268 6.58049 6.25206C6.65518 6.43878 6.72987 6.58816 6.8419 6.7002C6.95394 6.81223 7.10332 6.92427 7.2527 6.99896C7.43942 7.07365 7.62615 7.11099 7.81287 7.11099C8.11163 7.11099 8.37304 7.0363 8.59711 6.88692C8.82118 6.73754 8.97056 6.51347 9.0826 6.21471H8.44773C8.41039 6.2894 8.37304 6.36409 8.26101 6.43878C8.14897 6.51347 8.03694 6.55082 7.88756 6.55082C7.70084 6.55082 7.51411 6.51347 7.40208 6.40144C7.29004 6.25206 7.21535 6.06533 7.21535 5.84126Z" fill="#171717"/>
</g>
</g>
</g>
<defs>
<clipPath id="clip0_1147_21050">
<rect x="0.941406" y="0.351562" width="9.66851" height="9.66851" rx="2.24069" fill="white"/>
</clipPath>
<clipPath id="clip1_1147_21050">
<rect width="11.2035" height="9.70968" fill="white" transform="translate(0.193359 0.351562)"/>
</clipPath>
<clipPath id="clip2_1147_21050">
<rect width="9.70968" height="9.70968" fill="white" transform="translate(0.941406 0.351562)"/>
</clipPath>
</defs>
</svg>
