<svg width="24" height="24" viewBox="0 0 24 24" fill="none" xmlns="http://www.w3.org/2000/svg">
<g clip-path="url(#clip0_553_33701)">
<g clip-path="url(#clip1_553_33701)">
<path d="M18.6057 0H5.49654C4.03876 0 2.6407 0.579098 1.6099 1.6099C0.579098 2.6407 0 4.03876 0 5.49654V18.6057C0 20.0634 0.579098 21.4615 1.6099 22.4923C2.6407 23.5231 4.03876 24.1022 5.49654 24.1022H18.6057C20.0634 24.1022 21.4615 23.5231 22.4923 22.4923C23.5231 21.4615 24.1022 20.0634 24.1022 18.6057V5.49654C24.1022 4.03876 23.5231 2.6407 22.4923 1.6099C21.4615 0.579098 20.0634 0 18.6057 0ZM8.14901 19.4573C8.15289 19.5245 8.14297 19.5919 8.11986 19.6552C8.09676 19.7185 8.06095 19.7764 8.01465 19.8254C7.96835 19.8744 7.91253 19.9133 7.85061 19.9399C7.7887 19.9665 7.722 19.9802 7.65461 19.9801H5.45451C5.32194 19.9765 5.19601 19.9213 5.10363 19.8261C5.01124 19.731 4.95974 19.6035 4.96011 19.4709V10.3207C4.95829 10.2546 4.96974 10.1889 4.99377 10.1273C5.0178 10.0657 5.05393 10.0096 5.10002 9.96226C5.14611 9.9149 5.20123 9.87726 5.26212 9.85157C5.323 9.82588 5.38842 9.81266 5.45451 9.81268H7.65461C7.72074 9.81249 7.78624 9.82559 7.84721 9.85123C7.90817 9.87686 7.96336 9.91449 8.00949 9.96189C8.05561 10.0093 8.09173 10.0655 8.1157 10.1271C8.13967 10.1887 8.151 10.2546 8.14901 10.3207V19.4573ZM6.51377 7.88821C6.27557 7.88643 6.04006 7.83774 5.82068 7.74494C5.6013 7.65214 5.40234 7.51703 5.23517 7.34734C5.068 7.17764 4.9359 6.97669 4.84639 6.75594C4.75689 6.53519 4.71174 6.29897 4.71352 6.06077C4.71531 5.82258 4.76399 5.58706 4.8568 5.36768C4.9496 5.1483 5.08471 4.94934 5.2544 4.78217C5.42409 4.61501 5.62505 4.4829 5.8458 4.39339C6.06655 4.30389 6.30277 4.25874 6.54096 4.26053C7.01376 4.2759 7.46183 4.47544 7.78956 4.81655C8.1173 5.15767 8.29875 5.61336 8.2952 6.08639C8.29165 6.55943 8.10339 7.01234 7.77057 7.34851C7.43775 7.68467 6.98674 7.87746 6.51377 7.88574M19.8837 19.4424C19.8834 19.5674 19.8345 19.6874 19.7473 19.7769C19.6601 19.8664 19.5414 19.9185 19.4165 19.922H17.094C16.969 19.9182 16.8503 19.8658 16.7631 19.7761C16.676 19.6864 16.6271 19.5663 16.6268 19.4412V15.2091C16.6268 14.5775 16.8196 12.4614 14.9508 12.4614C13.4935 12.4614 13.2055 13.9447 13.1499 14.6047V19.5376C13.15 19.6629 13.1012 19.7833 13.014 19.8733C12.9268 19.9633 12.808 20.0158 12.6827 20.0196H10.4295C10.3662 20.0196 10.3036 20.0072 10.2452 19.9829C10.1868 19.9587 10.1337 19.9232 10.089 19.8784C10.0444 19.8336 10.009 19.7805 9.98489 19.722C9.9608 19.6635 9.94848 19.6008 9.94864 19.5376V10.2762C9.95219 10.1508 10.0046 10.0318 10.0946 9.94453C10.1847 9.85724 10.3053 9.8086 10.4307 9.80897H12.6827C12.8081 9.8086 12.9287 9.85724 13.0188 9.94453C13.1088 10.0318 13.1612 10.1508 13.1647 10.2762V11.0734C13.4936 10.5921 13.9475 10.2098 14.4777 9.96756C15.0079 9.72534 15.5941 9.63247 16.1732 9.69897C19.9245 9.69897 19.9109 13.2031 19.9109 15.1955L19.8837 19.4424Z" fill="#171717"/>
</g>
</g>
<defs>
<clipPath id="clip0_553_33701">
<rect width="24" height="24" rx="5.56204" fill="white"/>
</clipPath>
<clipPath id="clip1_553_33701">
<rect width="27.8102" height="24.1022" fill="white" transform="translate(-1.85352)"/>
</clipPath>
</defs>
</svg>
