<svg width="11" height="11" viewBox="0 0 11 11" fill="none" xmlns="http://www.w3.org/2000/svg">
<g clip-path="url(#clip0_1147_21047)">
<g clip-path="url(#clip1_1147_21047)">
<path d="M8.2649 0.351562H2.98384C2.39657 0.351563 1.83335 0.584855 1.41809 1.00012C1.00282 1.41538 0.769531 1.9786 0.769531 2.56587V7.84693C0.769531 8.43421 1.00282 8.99742 1.41809 9.41268C1.83335 9.82795 2.39657 10.0612 2.98384 10.0612H8.2649C8.85217 10.0612 9.41539 9.82795 9.83065 9.41268C10.2459 8.99742 10.4792 8.43421 10.4792 7.84693V2.56587C10.4792 1.9786 10.2459 1.41538 9.83065 1.00012C9.41539 0.584855 8.85217 0.351563 8.2649 0.351562ZM4.0524 8.19001C4.05396 8.21711 4.04996 8.24425 4.04065 8.26975C4.03135 8.29525 4.01692 8.31858 3.99827 8.33831C3.97962 8.35804 3.95713 8.37374 3.93219 8.38446C3.90724 8.39517 3.88037 8.40068 3.85322 8.40064H2.96691C2.9135 8.39921 2.86277 8.37695 2.82555 8.33861C2.78833 8.30028 2.76758 8.24891 2.76773 8.19549V4.5093C2.767 4.48268 2.77161 4.45619 2.78129 4.43139C2.79097 4.40659 2.80553 4.38398 2.8241 4.36491C2.84267 4.34583 2.86487 4.33066 2.8894 4.32031C2.91393 4.30996 2.94028 4.30464 2.96691 4.30465H3.85322C3.87987 4.30457 3.90625 4.30985 3.93081 4.32017C3.95537 4.3305 3.97761 4.34566 3.99619 4.36475C4.01477 4.38385 4.02932 4.40648 4.03898 4.43131C4.04864 4.45615 4.0532 4.48267 4.0524 4.5093V8.19001ZM3.39363 3.52937C3.29767 3.52865 3.2028 3.50903 3.11442 3.47165C3.02604 3.43426 2.94589 3.37983 2.87854 3.31147C2.8112 3.24311 2.75798 3.16215 2.72192 3.07322C2.68586 2.98429 2.66768 2.88913 2.6684 2.79317C2.66911 2.69721 2.68873 2.60234 2.72611 2.51396C2.7635 2.42558 2.81793 2.34543 2.88629 2.27808C2.95465 2.21074 3.03561 2.15752 3.12454 2.12146C3.21347 2.0854 3.30863 2.06722 3.40459 2.06793C3.59506 2.07413 3.77556 2.15451 3.90759 2.29193C4.03962 2.42935 4.11272 2.61293 4.11129 2.80349C4.10986 2.99406 4.03402 3.17652 3.89994 3.31194C3.76586 3.44737 3.58417 3.52503 3.39363 3.52837M8.77977 8.18403C8.77966 8.23439 8.75995 8.28271 8.72481 8.31878C8.68968 8.35484 8.64188 8.37581 8.59155 8.37723H7.65593C7.60556 8.37568 7.55776 8.35461 7.52264 8.31846C7.48751 8.28232 7.46782 8.23394 7.46771 8.18354V6.47862C7.46771 6.22417 7.54539 5.37171 6.79252 5.37171C6.20546 5.37171 6.08944 5.96923 6.06703 6.23513V8.22238C6.06706 8.27286 6.04742 8.32137 6.01228 8.35762C5.97715 8.39387 5.92927 8.41502 5.87881 8.41657H4.97108C4.9456 8.41657 4.92038 8.41154 4.89684 8.40178C4.87331 8.39201 4.85194 8.3777 4.83394 8.35966C4.81595 8.34162 4.80169 8.32021 4.79199 8.29665C4.78228 8.2731 4.77732 8.24785 4.77739 8.22238V4.49137C4.77882 4.44087 4.79992 4.39292 4.8362 4.35776C4.87248 4.3226 4.92106 4.303 4.97158 4.30315H5.87881C5.92934 4.303 5.97792 4.3226 6.0142 4.35776C6.05047 4.39292 6.07158 4.44087 6.07301 4.49137V4.81254C6.20547 4.61865 6.38836 4.46461 6.60194 4.36704C6.81552 4.26946 7.05169 4.23205 7.28497 4.25884C8.7962 4.25884 8.79072 5.67047 8.79072 6.47314L8.77977 8.18403Z" fill="#171717"/>
</g>
</g>
<defs>
<clipPath id="clip0_1147_21047">
<rect x="0.769531" y="0.351562" width="9.66851" height="9.66851" rx="2.24069" fill="white"/>
</clipPath>
<clipPath id="clip1_1147_21047">
<rect width="11.2035" height="9.70968" fill="white" transform="translate(0.0234375 0.351562)"/>
</clipPath>
</defs>
</svg>
