<svg width="11" height="11" viewBox="0 0 11 11" fill="none" xmlns="http://www.w3.org/2000/svg">
<g clip-path="url(#clip0_1147_21054)">
<g clip-path="url(#clip1_1147_21054)">
<path fill-rule="evenodd" clip-rule="evenodd" d="M2.87336 0.351562H8.03163C9.28846 0.351562 10.3073 1.37043 10.3073 2.62727V7.78553C10.3073 9.04237 9.28846 10.0612 8.03163 10.0612H2.87336C1.61652 10.0612 0.597656 9.04237 0.597656 7.78553V2.62727C0.597656 1.37043 1.61652 0.351562 2.87336 0.351562ZM3.67862 7.64711H2.6444C2.3999 7.64711 2.20117 7.44912 2.20117 7.20388V4.02734L3.67862 5.13541V7.64711ZM7.22656 7.64711H8.26081C8.50606 7.64711 8.70404 7.44841 8.70404 7.20388V4.02734L7.22656 5.13541V7.64711ZM7.22656 5.1328V3.2121L7.64028 2.90181C8.07833 2.57307 8.70404 2.88556 8.70404 3.43368V4.02473L7.22656 5.1328ZM3.67862 3.21359V3.2121L3.26494 2.90181C2.82613 2.57306 2.20117 2.88556 2.20117 3.43371V4.02467L3.67773 5.13211V5.13359L5.45067 6.46334L7.22362 5.13359V3.21289L5.45067 4.54264L3.67862 3.21359Z" fill="#171717"/>
</g>
</g>
<defs>
<clipPath id="clip0_1147_21054">
<rect x="0.597656" y="0.351562" width="9.66851" height="9.66851" rx="2.24069" fill="white"/>
</clipPath>
<clipPath id="clip1_1147_21054">
<rect width="11.2035" height="9.70968" fill="white" transform="translate(-0.148438 0.351562)"/>
</clipPath>
</defs>
</svg>
