<svg width="32" height="32" viewBox="0 0 32 32" fill="none" xmlns="http://www.w3.org/2000/svg">
<path d="M9.71932 6.54397C13.8988 6.18066 18.102 6.18065 22.2815 6.54397L24.2952 6.71901C25.6357 6.83554 26.7837 7.6351 27.3786 8.7788C27.4547 8.92512 27.3977 9.10227 27.2574 9.18908L18.9028 14.361C17.111 15.4702 14.8517 15.4935 13.0374 14.4214L4.62693 9.45159C4.49105 9.3713 4.42868 9.20602 4.48991 9.06055C5.03412 7.76779 6.25763 6.84489 7.70567 6.71902L9.71932 6.54397Z" fill="#171717"/>
<path d="M4.48307 11.6897C4.27512 11.5668 4.00978 11.699 3.98554 11.9393C3.64723 15.2935 3.72911 18.6795 4.23119 22.0183C4.49587 23.7784 5.93241 25.1278 7.70567 25.282L9.71932 25.457C13.8988 25.8203 18.102 25.8203 22.2815 25.457L24.2952 25.2819C26.0684 25.1278 27.505 23.7784 27.7697 22.0183C28.2864 18.5822 28.358 15.0961 27.9846 11.6462C27.9585 11.4042 27.6886 11.2744 27.4816 11.4025L19.9555 16.0615C17.5313 17.5622 14.4745 17.5937 12.0199 16.1432L4.48307 11.6897Z" fill="#171717"/>
</svg>
