<svg width="24" height="24" viewBox="0 0 24 24" fill="none" xmlns="http://www.w3.org/2000/svg">
<g clip-path="url(#clip0_553_33708)">
<g clip-path="url(#clip1_553_33708)">
<path fill-rule="evenodd" clip-rule="evenodd" d="M5.647 0.000976562H18.4513C21.5711 0.000976562 24.1002 2.5301 24.1002 5.64993V18.4542C24.1002 21.574 21.5711 24.1032 18.4513 24.1032H5.647C2.52717 24.1032 -0.00195312 21.574 -0.00195312 18.4542V5.64993C-0.00195312 2.5301 2.52717 0.000976562 5.647 0.000976562ZM7.64986 18.1064H5.08264C4.47573 18.1064 3.98242 17.6149 3.98242 17.0062V9.12109L7.64844 11.8706V11.87L3.98242 9.12046V7.65353C3.98242 6.29286 5.53375 5.51716 6.62299 6.33321L7.64986 7.10342V7.10466L12.0494 10.4043L16.4492 7.10435V7.10342L17.4762 6.33321C18.5636 5.51716 20.1167 6.29287 20.1167 7.65345V9.12062L16.4503 11.8703V11.8708L20.1167 9.12109V17.0062C20.1167 17.6132 19.6253 18.1064 19.0165 18.1064H16.4492V11.8721L12.0494 15.1721L7.64986 11.8723V18.1064Z" fill="#171717"/>
</g>
</g>
<defs>
<clipPath id="clip0_553_33708">
<rect width="24" height="24" rx="5.56204" fill="white"/>
</clipPath>
<clipPath id="clip1_553_33708">
<rect width="27.8102" height="24.1022" fill="white" transform="translate(-1.85352)"/>
</clipPath>
</defs>
</svg>
