<svg width="24" height="24" viewBox="0 0 24 24" fill="none" xmlns="http://www.w3.org/2000/svg">
<g clip-path="url(#clip0_553_33720)">
<g clip-path="url(#clip1_553_33720)">
<path fill-rule="evenodd" clip-rule="evenodd" d="M18.9064 0.378295C14.3859 -0.126098 9.71243 -0.126098 5.19184 0.378295C2.70298 0.655993 0.695546 2.61371 0.403431 5.10709C-0.137081 9.7207 -0.137081 14.3815 0.403431 18.9951C0.695546 21.4885 2.70299 23.4462 5.19184 23.7239C9.71243 24.2283 14.3859 24.2283 18.9064 23.7239C21.3953 23.4462 23.4027 21.4885 23.6949 18.9951C24.2354 14.3815 24.2354 9.7207 23.6949 5.10709C23.4027 2.61371 21.3953 0.655993 18.9064 0.378295ZM18.932 7.0476L17.8316 8.0985C17.7852 8.13391 17.7493 8.18125 17.7278 8.23545C17.7063 8.28965 17.6999 8.34867 17.7095 8.40619V16.1349C17.6999 16.1925 17.7063 16.2515 17.7278 16.3057C17.7493 16.3599 17.7852 16.4072 17.8316 16.4426L18.9047 17.4944V17.7245H13.5065V17.4944L14.6189 16.4171C14.7282 16.308 14.7282 16.2756 14.7282 16.1102V9.86279L11.6376 17.7006H11.2193L7.62075 9.86279V15.1156C7.60594 15.2245 7.61615 15.3354 7.65062 15.4398C7.68508 15.5442 7.74289 15.6394 7.81967 15.7182L9.26591 17.4697V17.6998H5.16623V17.4697L6.61333 15.7182C6.68948 15.6393 6.746 15.5437 6.77833 15.439C6.81066 15.3343 6.81789 15.2236 6.79944 15.1156V9.04116C6.80789 8.95809 6.79661 8.87421 6.76649 8.79631C6.73638 8.71841 6.68829 8.64871 6.62613 8.59284L5.34039 7.0476V6.81663H9.3308L12.4154 13.5695L15.1269 6.81577H18.9312L18.932 7.0476Z" fill="#171717"/>
</g>
</g>
<defs>
<clipPath id="clip0_553_33720">
<rect width="24" height="24" rx="5.56204" fill="white"/>
</clipPath>
<clipPath id="clip1_553_33720">
<rect width="27.8102" height="24.1022" fill="white" transform="translate(-1.85547)"/>
</clipPath>
</defs>
</svg>
