<svg width="10" height="11" viewBox="0 0 10 11" fill="none" xmlns="http://www.w3.org/2000/svg">
<g clip-path="url(#clip0_1147_21066)">
<g clip-path="url(#clip1_1147_21066)">
<path fill-rule="evenodd" clip-rule="evenodd" d="M7.72866 0.502007C5.90753 0.29881 4.02481 0.29881 2.20367 0.502007C1.20102 0.613879 0.392319 1.40255 0.274639 2.40702C0.0568911 4.26564 0.0568911 6.14326 0.274639 8.00187C0.392319 9.00634 1.20102 9.79502 2.20367 9.90689C4.02481 10.1101 5.90752 10.1101 7.72866 9.90689C8.73131 9.79502 9.54002 9.00634 9.6577 8.00187C9.87544 6.14326 9.87544 4.26564 9.6577 2.40702C9.54002 1.40255 8.73131 0.613879 7.72866 0.502007ZM7.73897 3.18877L7.29564 3.61213C7.27695 3.62639 7.2625 3.64546 7.25383 3.6673C7.24517 3.68913 7.24262 3.71291 7.24645 3.73608V6.84965C7.24262 6.87282 7.24517 6.89659 7.25383 6.91843C7.2625 6.94026 7.27695 6.95934 7.29564 6.9736L7.72796 7.3973V7.49001H5.55326V7.3973L6.00141 6.9633C6.04543 6.91935 6.04543 6.9063 6.04543 6.83969V4.32288L4.80038 7.48039H4.63186L3.18217 4.32288V6.43899C3.1762 6.48287 3.18032 6.52753 3.1942 6.56959C3.20809 6.61165 3.23137 6.65 3.2623 6.68175L3.84493 7.38734V7.48005H2.19335V7.38734L2.77632 6.68175C2.807 6.64998 2.82977 6.61146 2.84279 6.56929C2.85582 6.52712 2.85873 6.48249 2.8513 6.43899V3.99188C2.85471 3.95842 2.85016 3.92462 2.83803 3.89324C2.8259 3.86186 2.80652 3.83378 2.78148 3.81128L2.26352 3.18877V3.09572H3.87107L5.11371 5.81614L6.20605 3.09538H7.73863L7.73897 3.18877Z" fill="#171717"/>
</g>
</g>
<defs>
<clipPath id="clip0_1147_21066">
<rect x="0.113281" y="0.351562" width="9.66851" height="9.66851" rx="2.24069" fill="white"/>
</clipPath>
<clipPath id="clip1_1147_21066">
<rect width="11.2035" height="9.70968" fill="white" transform="translate(-0.634766 0.351562)"/>
</clipPath>
</defs>
</svg>
